<mxfile host="app.diagrams.net" modified="2024-02-10T13:39:13.336Z" agent="Mozilla/5.0 (Windows NT 10.0; Win64; x64) AppleWebKit/537.36 (KHTML, like Gecko) Chrome/120.0.0.0 Safari/537.36" etag="_GLAFiuqGkh4-Sb0K_Pm" version="23.1.1" type="github">
  <diagram id="i7gGXflLBzXJQ1Onad0F" name="第 1 页">
    <mxGraphModel dx="2546" dy="862" grid="1" gridSize="10" guides="1" tooltips="1" connect="1" arrows="1" fold="1" page="1" pageScale="1" pageWidth="827" pageHeight="1169" math="0" shadow="0">
      <root>
        <mxCell id="0" />
        <mxCell id="1" parent="0" />
        <mxCell id="6hGsSX0xc1QD5v10wT_n-3" value="" style="whiteSpace=wrap;html=1;aspect=fixed;fillColor=#dae8fc;strokeColor=#6c8ebf;" parent="1" vertex="1">
          <mxGeometry x="-110" y="190" width="50" height="50" as="geometry" />
        </mxCell>
        <mxCell id="6hGsSX0xc1QD5v10wT_n-2" value="" style="whiteSpace=wrap;html=1;aspect=fixed;fillColor=#d5e8d4;strokeColor=#82b366;" parent="1" vertex="1">
          <mxGeometry x="-120" y="200" width="50" height="50" as="geometry" />
        </mxCell>
        <mxCell id="jxfBpQLGGbF27Udm01dI-3" style="edgeStyle=orthogonalEdgeStyle;rounded=0;orthogonalLoop=1;jettySize=auto;html=1;exitX=0.5;exitY=1;exitDx=0;exitDy=0;entryX=0.5;entryY=0;entryDx=0;entryDy=0;" parent="1" source="6hGsSX0xc1QD5v10wT_n-1" target="96Z2TRk2g2hctk14bLeR-9" edge="1">
          <mxGeometry relative="1" as="geometry" />
        </mxCell>
        <mxCell id="6hGsSX0xc1QD5v10wT_n-1" value="" style="whiteSpace=wrap;html=1;aspect=fixed;fillColor=#f8cecc;strokeColor=#b85450;" parent="1" vertex="1">
          <mxGeometry x="-130" y="210" width="50" height="50" as="geometry" />
        </mxCell>
        <mxCell id="jxfBpQLGGbF27Udm01dI-7" style="edgeStyle=orthogonalEdgeStyle;rounded=0;orthogonalLoop=1;jettySize=auto;html=1;exitX=0.5;exitY=1;exitDx=0;exitDy=0;" parent="1" source="96Z2TRk2g2hctk14bLeR-2" target="96Z2TRk2g2hctk14bLeR-11" edge="1">
          <mxGeometry relative="1" as="geometry" />
        </mxCell>
        <mxCell id="96Z2TRk2g2hctk14bLeR-2" value="CBS" style="rounded=1;whiteSpace=wrap;html=1;fillColor=#dae8fc;strokeColor=#6c8ebf;" parent="1" vertex="1">
          <mxGeometry x="-165" y="478.03" width="120" height="20" as="geometry" />
        </mxCell>
        <mxCell id="jxfBpQLGGbF27Udm01dI-6" style="edgeStyle=orthogonalEdgeStyle;rounded=0;orthogonalLoop=1;jettySize=auto;html=1;exitX=0.5;exitY=1;exitDx=0;exitDy=0;entryX=0.5;entryY=0;entryDx=0;entryDy=0;" parent="1" source="96Z2TRk2g2hctk14bLeR-5" target="96Z2TRk2g2hctk14bLeR-2" edge="1">
          <mxGeometry relative="1" as="geometry" />
        </mxCell>
        <mxCell id="96Z2TRk2g2hctk14bLeR-5" value="CBS" style="rounded=1;whiteSpace=wrap;html=1;fillColor=#dae8fc;strokeColor=#6c8ebf;" parent="1" vertex="1">
          <mxGeometry x="-165" y="413" width="120" height="20" as="geometry" />
        </mxCell>
        <mxCell id="jxfBpQLGGbF27Udm01dI-5" style="edgeStyle=orthogonalEdgeStyle;rounded=0;orthogonalLoop=1;jettySize=auto;html=1;exitX=0.5;exitY=1;exitDx=0;exitDy=0;entryX=0.5;entryY=0;entryDx=0;entryDy=0;" parent="1" source="96Z2TRk2g2hctk14bLeR-7" target="96Z2TRk2g2hctk14bLeR-5" edge="1">
          <mxGeometry relative="1" as="geometry" />
        </mxCell>
        <mxCell id="96Z2TRk2g2hctk14bLeR-7" value="CBS" style="rounded=1;whiteSpace=wrap;html=1;fillColor=#dae8fc;strokeColor=#6c8ebf;" parent="1" vertex="1">
          <mxGeometry x="-165" y="356" width="120" height="20" as="geometry" />
        </mxCell>
        <mxCell id="jxfBpQLGGbF27Udm01dI-4" style="edgeStyle=orthogonalEdgeStyle;rounded=0;orthogonalLoop=1;jettySize=auto;html=1;exitX=0.5;exitY=1;exitDx=0;exitDy=0;entryX=0.5;entryY=0;entryDx=0;entryDy=0;" parent="1" source="96Z2TRk2g2hctk14bLeR-9" target="96Z2TRk2g2hctk14bLeR-7" edge="1">
          <mxGeometry relative="1" as="geometry" />
        </mxCell>
        <mxCell id="96Z2TRk2g2hctk14bLeR-9" value="CBS" style="rounded=1;whiteSpace=wrap;html=1;fillColor=#dae8fc;strokeColor=#6c8ebf;" parent="1" vertex="1">
          <mxGeometry x="-165" y="298" width="120" height="20" as="geometry" />
        </mxCell>
        <mxCell id="jxfBpQLGGbF27Udm01dI-8" style="edgeStyle=orthogonalEdgeStyle;rounded=0;orthogonalLoop=1;jettySize=auto;html=1;exitX=0.5;exitY=1;exitDx=0;exitDy=0;entryX=0.5;entryY=1;entryDx=0;entryDy=0;" parent="1" source="96Z2TRk2g2hctk14bLeR-11" target="96Z2TRk2g2hctk14bLeR-17" edge="1">
          <mxGeometry relative="1" as="geometry" />
        </mxCell>
        <mxCell id="96Z2TRk2g2hctk14bLeR-11" value="ELAN" style="rounded=1;whiteSpace=wrap;html=1;fillColor=#d5e8d4;strokeColor=#82b366;" parent="1" vertex="1">
          <mxGeometry x="-165" y="542" width="120" height="20" as="geometry" />
        </mxCell>
        <mxCell id="96Z2TRk2g2hctk14bLeR-20" value="" style="edgeStyle=orthogonalEdgeStyle;rounded=0;orthogonalLoop=1;jettySize=auto;html=1;" parent="1" source="96Z2TRk2g2hctk14bLeR-17" target="96Z2TRk2g2hctk14bLeR-19" edge="1">
          <mxGeometry relative="1" as="geometry" />
        </mxCell>
        <mxCell id="96Z2TRk2g2hctk14bLeR-17" value="MPConv" style="rounded=1;whiteSpace=wrap;html=1;fillColor=#fad9d5;strokeColor=#ae4132;" parent="1" vertex="1">
          <mxGeometry x="36" y="655" width="120" height="20" as="geometry" />
        </mxCell>
        <mxCell id="96Z2TRk2g2hctk14bLeR-45" style="edgeStyle=orthogonalEdgeStyle;rounded=0;orthogonalLoop=1;jettySize=auto;html=1;exitX=0.5;exitY=0;exitDx=0;exitDy=0;entryX=0;entryY=0.5;entryDx=0;entryDy=0;" parent="1" source="96Z2TRk2g2hctk14bLeR-19" target="96Z2TRk2g2hctk14bLeR-43" edge="1">
          <mxGeometry relative="1" as="geometry" />
        </mxCell>
        <mxCell id="96Z2TRk2g2hctk14bLeR-284" value="" style="edgeStyle=orthogonalEdgeStyle;rounded=0;orthogonalLoop=1;jettySize=auto;html=1;fontSize=30;" parent="1" source="96Z2TRk2g2hctk14bLeR-19" target="96Z2TRk2g2hctk14bLeR-281" edge="1">
          <mxGeometry relative="1" as="geometry" />
        </mxCell>
        <mxCell id="96Z2TRk2g2hctk14bLeR-19" value="ELAN" style="rounded=1;whiteSpace=wrap;html=1;fillColor=#d5e8d4;strokeColor=#82b366;" parent="1" vertex="1">
          <mxGeometry x="36" y="585" width="120" height="20" as="geometry" />
        </mxCell>
        <mxCell id="96Z2TRk2g2hctk14bLeR-36" style="edgeStyle=orthogonalEdgeStyle;rounded=0;orthogonalLoop=1;jettySize=auto;html=1;exitX=0.5;exitY=0;exitDx=0;exitDy=0;entryX=0;entryY=0.5;entryDx=0;entryDy=0;" parent="1" source="96Z2TRk2g2hctk14bLeR-21" target="96Z2TRk2g2hctk14bLeR-40" edge="1">
          <mxGeometry relative="1" as="geometry">
            <mxPoint x="221" y="410" as="targetPoint" />
          </mxGeometry>
        </mxCell>
        <mxCell id="96Z2TRk2g2hctk14bLeR-41" style="edgeStyle=orthogonalEdgeStyle;rounded=0;orthogonalLoop=1;jettySize=auto;html=1;exitX=0.5;exitY=0;exitDx=0;exitDy=0;entryX=0.5;entryY=1;entryDx=0;entryDy=0;" parent="1" source="96Z2TRk2g2hctk14bLeR-21" target="96Z2TRk2g2hctk14bLeR-23" edge="1">
          <mxGeometry relative="1" as="geometry" />
        </mxCell>
        <mxCell id="96Z2TRk2g2hctk14bLeR-21" value="ELAN" style="rounded=1;whiteSpace=wrap;html=1;fillColor=#d5e8d4;strokeColor=#82b366;" parent="1" vertex="1">
          <mxGeometry x="36" y="380" width="120" height="20" as="geometry" />
        </mxCell>
        <mxCell id="96Z2TRk2g2hctk14bLeR-26" style="edgeStyle=orthogonalEdgeStyle;rounded=0;orthogonalLoop=1;jettySize=auto;html=1;exitX=0.5;exitY=0;exitDx=0;exitDy=0;" parent="1" source="96Z2TRk2g2hctk14bLeR-23" target="96Z2TRk2g2hctk14bLeR-25" edge="1">
          <mxGeometry relative="1" as="geometry" />
        </mxCell>
        <mxCell id="96Z2TRk2g2hctk14bLeR-23" value="MPConv" style="rounded=1;whiteSpace=wrap;html=1;fillColor=#fad9d5;strokeColor=#ae4132;" parent="1" vertex="1">
          <mxGeometry x="36" y="290" width="120" height="20" as="geometry" />
        </mxCell>
        <mxCell id="96Z2TRk2g2hctk14bLeR-29" style="edgeStyle=orthogonalEdgeStyle;rounded=0;orthogonalLoop=1;jettySize=auto;html=1;exitX=0.5;exitY=0;exitDx=0;exitDy=0;entryX=0.5;entryY=0;entryDx=0;entryDy=0;" parent="1" source="96Z2TRk2g2hctk14bLeR-25" target="96Z2TRk2g2hctk14bLeR-28" edge="1">
          <mxGeometry relative="1" as="geometry">
            <mxPoint x="311" y="260" as="targetPoint" />
          </mxGeometry>
        </mxCell>
        <mxCell id="96Z2TRk2g2hctk14bLeR-25" value="ELAN" style="rounded=1;whiteSpace=wrap;html=1;fillColor=#d5e8d4;strokeColor=#82b366;" parent="1" vertex="1">
          <mxGeometry x="36" y="220" width="120" height="20" as="geometry" />
        </mxCell>
        <mxCell id="96Z2TRk2g2hctk14bLeR-31" style="edgeStyle=orthogonalEdgeStyle;rounded=0;orthogonalLoop=1;jettySize=auto;html=1;exitX=0.5;exitY=1;exitDx=0;exitDy=0;" parent="1" source="96Z2TRk2g2hctk14bLeR-28" target="96Z2TRk2g2hctk14bLeR-30" edge="1">
          <mxGeometry relative="1" as="geometry" />
        </mxCell>
        <mxCell id="96Z2TRk2g2hctk14bLeR-73" style="edgeStyle=orthogonalEdgeStyle;rounded=0;orthogonalLoop=1;jettySize=auto;html=1;exitX=0.5;exitY=0;exitDx=0;exitDy=0;startArrow=none;entryX=0;entryY=0.5;entryDx=0;entryDy=0;" parent="1" target="96Z2TRk2g2hctk14bLeR-71" edge="1">
          <mxGeometry relative="1" as="geometry">
            <Array as="points">
              <mxPoint x="311" y="227" />
              <mxPoint x="450" y="227" />
              <mxPoint x="450" y="265" />
            </Array>
            <mxPoint x="311" y="231.47999999999988" as="sourcePoint" />
            <mxPoint x="450" y="260" as="targetPoint" />
          </mxGeometry>
        </mxCell>
        <mxCell id="96Z2TRk2g2hctk14bLeR-28" value="SPPCSPC" style="rounded=1;whiteSpace=wrap;html=1;fillColor=#ffff88;strokeColor=#36393d;" parent="1" vertex="1">
          <mxGeometry x="251" y="197" width="120" height="20" as="geometry" />
        </mxCell>
        <mxCell id="96Z2TRk2g2hctk14bLeR-30" value="CBS" style="rounded=1;whiteSpace=wrap;html=1;fillColor=#dae8fc;strokeColor=#6c8ebf;" parent="1" vertex="1">
          <mxGeometry x="251" y="250" width="120" height="20" as="geometry" />
        </mxCell>
        <mxCell id="96Z2TRk2g2hctk14bLeR-38" value="" style="edgeStyle=orthogonalEdgeStyle;rounded=0;orthogonalLoop=1;jettySize=auto;html=1;" parent="1" source="96Z2TRk2g2hctk14bLeR-32" target="96Z2TRk2g2hctk14bLeR-37" edge="1">
          <mxGeometry relative="1" as="geometry" />
        </mxCell>
        <mxCell id="96Z2TRk2g2hctk14bLeR-32" value="UPSample" style="rounded=1;whiteSpace=wrap;html=1;fillColor=#99CCFF;" parent="1" vertex="1">
          <mxGeometry x="250" y="300" width="120" height="20" as="geometry" />
        </mxCell>
        <mxCell id="96Z2TRk2g2hctk14bLeR-50" value="" style="edgeStyle=orthogonalEdgeStyle;rounded=0;orthogonalLoop=1;jettySize=auto;html=1;" parent="1" source="96Z2TRk2g2hctk14bLeR-37" target="96Z2TRk2g2hctk14bLeR-49" edge="1">
          <mxGeometry relative="1" as="geometry" />
        </mxCell>
        <mxCell id="96Z2TRk2g2hctk14bLeR-37" value="cat" style="ellipse;whiteSpace=wrap;html=1;rounded=1;fillColor=#fff2cc;strokeColor=#d6b656;" parent="1" vertex="1">
          <mxGeometry x="296" y="335" width="30" height="30" as="geometry" />
        </mxCell>
        <mxCell id="96Z2TRk2g2hctk14bLeR-40" value="CBS" style="rounded=1;whiteSpace=wrap;html=1;fillColor=#dae8fc;strokeColor=#6c8ebf;" parent="1" vertex="1">
          <mxGeometry x="162" y="340" width="60" height="20" as="geometry" />
        </mxCell>
        <mxCell id="96Z2TRk2g2hctk14bLeR-43" value="CBS" style="rounded=1;whiteSpace=wrap;html=1;fillColor=#dae8fc;strokeColor=#6c8ebf;" parent="1" vertex="1">
          <mxGeometry x="162" y="555" width="60" height="20" as="geometry" />
        </mxCell>
        <mxCell id="96Z2TRk2g2hctk14bLeR-67" value="" style="edgeStyle=orthogonalEdgeStyle;rounded=0;orthogonalLoop=1;jettySize=auto;html=1;" parent="1" source="96Z2TRk2g2hctk14bLeR-48" target="96Z2TRk2g2hctk14bLeR-66" edge="1">
          <mxGeometry relative="1" as="geometry" />
        </mxCell>
        <mxCell id="96Z2TRk2g2hctk14bLeR-48" value="cat" style="ellipse;whiteSpace=wrap;html=1;rounded=1;fillColor=#fff2cc;strokeColor=#d6b656;" parent="1" vertex="1">
          <mxGeometry x="296" y="550" width="30" height="30" as="geometry" />
        </mxCell>
        <mxCell id="96Z2TRk2g2hctk14bLeR-49" value="ELAN-H" style="rounded=1;whiteSpace=wrap;html=1;fillColor=#cdeb8b;strokeColor=#36393d;" parent="1" vertex="1">
          <mxGeometry x="251" y="400" width="120" height="20" as="geometry" />
        </mxCell>
        <mxCell id="96Z2TRk2g2hctk14bLeR-91" value="" style="edgeStyle=orthogonalEdgeStyle;rounded=0;orthogonalLoop=1;jettySize=auto;html=1;exitX=0.5;exitY=1;exitDx=0;exitDy=0;entryX=0;entryY=0.5;entryDx=0;entryDy=0;" parent="1" source="96Z2TRk2g2hctk14bLeR-49" target="96Z2TRk2g2hctk14bLeR-89" edge="1">
          <mxGeometry relative="1" as="geometry">
            <Array as="points">
              <mxPoint x="311" y="440" />
              <mxPoint x="450" y="440" />
              <mxPoint x="450" y="480" />
            </Array>
          </mxGeometry>
        </mxCell>
        <mxCell id="96Z2TRk2g2hctk14bLeR-54" value="CBS" style="rounded=1;whiteSpace=wrap;html=1;fillColor=#dae8fc;strokeColor=#6c8ebf;" parent="1" vertex="1">
          <mxGeometry x="250.5" y="470" width="120" height="20" as="geometry" />
        </mxCell>
        <mxCell id="96Z2TRk2g2hctk14bLeR-56" style="edgeStyle=orthogonalEdgeStyle;rounded=0;orthogonalLoop=1;jettySize=auto;html=1;exitX=0.5;exitY=1;exitDx=0;exitDy=0;entryX=0.5;entryY=0;entryDx=0;entryDy=0;" parent="1" source="96Z2TRk2g2hctk14bLeR-49" target="96Z2TRk2g2hctk14bLeR-54" edge="1">
          <mxGeometry relative="1" as="geometry">
            <mxPoint x="311" y="445" as="sourcePoint" />
          </mxGeometry>
        </mxCell>
        <mxCell id="a6rZ2WNsQKCH5PQ9cZ_o-20" style="edgeStyle=orthogonalEdgeStyle;rounded=0;orthogonalLoop=1;jettySize=auto;html=1;exitX=0.5;exitY=1;exitDx=0;exitDy=0;entryX=0.5;entryY=0;entryDx=0;entryDy=0;fontFamily=Tahoma;fontSize=6;" parent="1" source="96Z2TRk2g2hctk14bLeR-60" target="96Z2TRk2g2hctk14bLeR-48" edge="1">
          <mxGeometry relative="1" as="geometry" />
        </mxCell>
        <mxCell id="96Z2TRk2g2hctk14bLeR-60" value="UPsample" style="rounded=1;whiteSpace=wrap;html=1;fillColor=#99CCFF;" parent="1" vertex="1">
          <mxGeometry x="251" y="519" width="120" height="20" as="geometry" />
        </mxCell>
        <mxCell id="96Z2TRk2g2hctk14bLeR-66" value="ELAN-H" style="whiteSpace=wrap;html=1;rounded=1;fillColor=#cdeb8b;strokeColor=#36393d;" parent="1" vertex="1">
          <mxGeometry x="250.5" y="660" width="120" height="20" as="geometry" />
        </mxCell>
        <mxCell id="96Z2TRk2g2hctk14bLeR-93" style="edgeStyle=orthogonalEdgeStyle;rounded=0;orthogonalLoop=1;jettySize=auto;html=1;entryX=0.5;entryY=1;entryDx=0;entryDy=0;exitX=1;exitY=0.5;exitDx=0;exitDy=0;" parent="1" source="96Z2TRk2g2hctk14bLeR-66" target="96Z2TRk2g2hctk14bLeR-83" edge="1">
          <mxGeometry relative="1" as="geometry">
            <mxPoint x="410" y="690" as="sourcePoint" />
          </mxGeometry>
        </mxCell>
        <mxCell id="96Z2TRk2g2hctk14bLeR-105" style="edgeStyle=orthogonalEdgeStyle;rounded=0;orthogonalLoop=1;jettySize=auto;html=1;entryX=0;entryY=0.5;entryDx=0;entryDy=0;exitX=1;exitY=0.5;exitDx=0;exitDy=0;" parent="1" source="96Z2TRk2g2hctk14bLeR-66" target="96Z2TRk2g2hctk14bLeR-101" edge="1">
          <mxGeometry relative="1" as="geometry">
            <mxPoint x="400" y="650" as="sourcePoint" />
          </mxGeometry>
        </mxCell>
        <mxCell id="96Z2TRk2g2hctk14bLeR-96" style="edgeStyle=orthogonalEdgeStyle;rounded=0;orthogonalLoop=1;jettySize=auto;html=1;exitX=0.5;exitY=0;exitDx=0;exitDy=0;entryX=0.5;entryY=1;entryDx=0;entryDy=0;" parent="1" source="96Z2TRk2g2hctk14bLeR-71" target="96Z2TRk2g2hctk14bLeR-94" edge="1">
          <mxGeometry relative="1" as="geometry" />
        </mxCell>
        <mxCell id="96Z2TRk2g2hctk14bLeR-71" value="cat" style="ellipse;whiteSpace=wrap;html=1;rounded=1;fillColor=#fff2cc;strokeColor=#d6b656;" parent="1" vertex="1">
          <mxGeometry x="471" y="250" width="30" height="30" as="geometry" />
        </mxCell>
        <mxCell id="96Z2TRk2g2hctk14bLeR-84" value="" style="edgeStyle=orthogonalEdgeStyle;rounded=0;orthogonalLoop=1;jettySize=auto;html=1;entryX=0.5;entryY=1;entryDx=0;entryDy=0;" parent="1" source="96Z2TRk2g2hctk14bLeR-81" target="96Z2TRk2g2hctk14bLeR-71" edge="1">
          <mxGeometry relative="1" as="geometry">
            <mxPoint x="486" y="320" as="targetPoint" />
          </mxGeometry>
        </mxCell>
        <mxCell id="96Z2TRk2g2hctk14bLeR-81" value="MPConv" style="whiteSpace=wrap;html=1;rounded=1;fillColor=#fad9d5;strokeColor=#ae4132;" parent="1" vertex="1">
          <mxGeometry x="426" y="320" width="120" height="20" as="geometry" />
        </mxCell>
        <mxCell id="96Z2TRk2g2hctk14bLeR-88" value="" style="edgeStyle=orthogonalEdgeStyle;rounded=0;orthogonalLoop=1;jettySize=auto;html=1;" parent="1" source="96Z2TRk2g2hctk14bLeR-82" target="96Z2TRk2g2hctk14bLeR-81" edge="1">
          <mxGeometry relative="1" as="geometry" />
        </mxCell>
        <mxCell id="slHn6gZgomVeKo_xS-rV-91" style="edgeStyle=orthogonalEdgeStyle;rounded=0;orthogonalLoop=1;jettySize=auto;html=1;exitX=1;exitY=0.5;exitDx=0;exitDy=0;entryX=0;entryY=0.5;entryDx=0;entryDy=0;" edge="1" parent="1" source="96Z2TRk2g2hctk14bLeR-82" target="96Z2TRk2g2hctk14bLeR-100">
          <mxGeometry relative="1" as="geometry" />
        </mxCell>
        <mxCell id="96Z2TRk2g2hctk14bLeR-82" value="ELAN-H" style="whiteSpace=wrap;html=1;rounded=1;fillColor=#cdeb8b;strokeColor=#36393d;" parent="1" vertex="1">
          <mxGeometry x="426" y="385" width="120" height="20" as="geometry" />
        </mxCell>
        <mxCell id="96Z2TRk2g2hctk14bLeR-92" style="edgeStyle=orthogonalEdgeStyle;rounded=0;orthogonalLoop=1;jettySize=auto;html=1;exitX=0.5;exitY=0;exitDx=0;exitDy=0;entryX=0.5;entryY=1;entryDx=0;entryDy=0;" parent="1" source="96Z2TRk2g2hctk14bLeR-83" target="96Z2TRk2g2hctk14bLeR-89" edge="1">
          <mxGeometry relative="1" as="geometry">
            <mxPoint x="470" y="510" as="targetPoint" />
            <Array as="points">
              <mxPoint x="486" y="510" />
              <mxPoint x="486" y="510" />
            </Array>
          </mxGeometry>
        </mxCell>
        <mxCell id="96Z2TRk2g2hctk14bLeR-83" value="MPConv" style="whiteSpace=wrap;html=1;rounded=1;fillColor=#fad9d5;strokeColor=#ae4132;" parent="1" vertex="1">
          <mxGeometry x="427" y="587.5" width="120" height="20" as="geometry" />
        </mxCell>
        <mxCell id="96Z2TRk2g2hctk14bLeR-90" value="" style="edgeStyle=orthogonalEdgeStyle;rounded=0;orthogonalLoop=1;jettySize=auto;html=1;" parent="1" source="96Z2TRk2g2hctk14bLeR-89" target="96Z2TRk2g2hctk14bLeR-82" edge="1">
          <mxGeometry relative="1" as="geometry" />
        </mxCell>
        <mxCell id="96Z2TRk2g2hctk14bLeR-89" value="cat" style="ellipse;whiteSpace=wrap;html=1;rounded=1;fillColor=#fff2cc;strokeColor=#d6b656;" parent="1" vertex="1">
          <mxGeometry x="471" y="465" width="30" height="30" as="geometry" />
        </mxCell>
        <mxCell id="96Z2TRk2g2hctk14bLeR-97" style="edgeStyle=orthogonalEdgeStyle;rounded=0;orthogonalLoop=1;jettySize=auto;html=1;exitX=0.5;exitY=0;exitDx=0;exitDy=0;entryX=0.5;entryY=1;entryDx=0;entryDy=0;" parent="1" source="96Z2TRk2g2hctk14bLeR-94" target="96Z2TRk2g2hctk14bLeR-95" edge="1">
          <mxGeometry relative="1" as="geometry">
            <mxPoint x="486" y="175" as="sourcePoint" />
          </mxGeometry>
        </mxCell>
        <mxCell id="96Z2TRk2g2hctk14bLeR-94" value="ELAN-H" style="rounded=1;whiteSpace=wrap;html=1;fillColor=#cdeb8b;strokeColor=#36393d;" parent="1" vertex="1">
          <mxGeometry x="426" y="195" width="120" height="20" as="geometry" />
        </mxCell>
        <mxCell id="96Z2TRk2g2hctk14bLeR-99" style="edgeStyle=orthogonalEdgeStyle;rounded=0;orthogonalLoop=1;jettySize=auto;html=1;exitX=1;exitY=0.5;exitDx=0;exitDy=0;entryX=0;entryY=0.5;entryDx=0;entryDy=0;" parent="1" source="96Z2TRk2g2hctk14bLeR-95" target="96Z2TRk2g2hctk14bLeR-98" edge="1">
          <mxGeometry relative="1" as="geometry" />
        </mxCell>
        <mxCell id="96Z2TRk2g2hctk14bLeR-95" value="CBS" style="rounded=1;whiteSpace=wrap;html=1;fillColor=#dae8fc;strokeColor=#6c8ebf;" parent="1" vertex="1">
          <mxGeometry x="427" y="140" width="120" height="20" as="geometry" />
        </mxCell>
        <mxCell id="96Z2TRk2g2hctk14bLeR-98" value="REP" style="rounded=1;whiteSpace=wrap;html=1;fillColor=#fad7ac;strokeColor=#b46504;" parent="1" vertex="1">
          <mxGeometry x="611" y="140" width="40" height="20" as="geometry" />
        </mxCell>
        <mxCell id="96Z2TRk2g2hctk14bLeR-100" value="REP" style="rounded=1;whiteSpace=wrap;html=1;fillColor=#fad7ac;strokeColor=#b46504;" parent="1" vertex="1">
          <mxGeometry x="611" y="386" width="40" height="20" as="geometry" />
        </mxCell>
        <mxCell id="96Z2TRk2g2hctk14bLeR-101" value="REP" style="rounded=1;whiteSpace=wrap;html=1;fillColor=#fad7ac;strokeColor=#b46504;" parent="1" vertex="1">
          <mxGeometry x="610" y="660" width="40" height="20" as="geometry" />
        </mxCell>
        <mxCell id="96Z2TRk2g2hctk14bLeR-141" value="" style="edgeStyle=orthogonalEdgeStyle;rounded=0;orthogonalLoop=1;jettySize=auto;html=1;exitX=1;exitY=0.5;exitDx=0;exitDy=0;" parent="1" source="96Z2TRk2g2hctk14bLeR-98" target="96Z2TRk2g2hctk14bLeR-117" edge="1">
          <mxGeometry relative="1" as="geometry">
            <mxPoint x="721" y="150.0000000000001" as="sourcePoint" />
          </mxGeometry>
        </mxCell>
        <mxCell id="96Z2TRk2g2hctk14bLeR-119" value="" style="edgeStyle=orthogonalEdgeStyle;rounded=0;orthogonalLoop=1;jettySize=auto;html=1;exitX=1;exitY=0.5;exitDx=0;exitDy=0;" parent="1" source="96Z2TRk2g2hctk14bLeR-100" target="96Z2TRk2g2hctk14bLeR-118" edge="1">
          <mxGeometry relative="1" as="geometry">
            <mxPoint x="721" y="396" as="sourcePoint" />
          </mxGeometry>
        </mxCell>
        <mxCell id="96Z2TRk2g2hctk14bLeR-121" value="" style="edgeStyle=orthogonalEdgeStyle;rounded=0;orthogonalLoop=1;jettySize=auto;html=1;exitX=1;exitY=0.5;exitDx=0;exitDy=0;" parent="1" source="96Z2TRk2g2hctk14bLeR-101" target="96Z2TRk2g2hctk14bLeR-120" edge="1">
          <mxGeometry relative="1" as="geometry">
            <mxPoint x="721" y="670" as="sourcePoint" />
          </mxGeometry>
        </mxCell>
        <mxCell id="96Z2TRk2g2hctk14bLeR-117" value="" style="shape=cube;whiteSpace=wrap;html=1;boundedLbl=1;backgroundOutline=1;darkOpacity=0.05;darkOpacity2=0.1;size=10;fontStyle=1;fillColor=#f8cecc;strokeColor=#b85450;" parent="1" vertex="1">
          <mxGeometry x="751" y="130" width="40" height="40" as="geometry" />
        </mxCell>
        <mxCell id="96Z2TRk2g2hctk14bLeR-118" value="" style="shape=cube;whiteSpace=wrap;html=1;boundedLbl=1;backgroundOutline=1;darkOpacity=0.05;darkOpacity2=0.1;size=10;fillColor=#d5e8d4;strokeColor=#82b366;" parent="1" vertex="1">
          <mxGeometry x="751" y="376" width="40" height="40" as="geometry" />
        </mxCell>
        <mxCell id="96Z2TRk2g2hctk14bLeR-120" value="" style="shape=cube;whiteSpace=wrap;html=1;boundedLbl=1;backgroundOutline=1;darkOpacity=0.05;darkOpacity2=0.1;size=10;fillColor=#dae8fc;strokeColor=#6c8ebf;" parent="1" vertex="1">
          <mxGeometry x="752" y="650" width="40" height="40" as="geometry" />
        </mxCell>
        <mxCell id="96Z2TRk2g2hctk14bLeR-131" value="CBS" style="rounded=1;whiteSpace=wrap;html=1;fillColor=#dae8fc;strokeColor=#6c8ebf;" parent="1" vertex="1">
          <mxGeometry x="828" y="270.5" width="40" height="20" as="geometry" />
        </mxCell>
        <mxCell id="96Z2TRk2g2hctk14bLeR-132" value="CBS" style="rounded=1;whiteSpace=wrap;html=1;fillColor=#dae8fc;strokeColor=#6c8ebf;" parent="1" vertex="1">
          <mxGeometry x="876" y="270.5" width="40" height="20" as="geometry" />
        </mxCell>
        <mxCell id="96Z2TRk2g2hctk14bLeR-133" value="CBS" style="rounded=1;whiteSpace=wrap;html=1;fillColor=#dae8fc;strokeColor=#6c8ebf;" parent="1" vertex="1">
          <mxGeometry x="923" y="270.5" width="40" height="20" as="geometry" />
        </mxCell>
        <mxCell id="96Z2TRk2g2hctk14bLeR-136" value="Conv" style="rounded=1;whiteSpace=wrap;html=1;fillColor=#dae8fc;strokeColor=#6c8ebf;" parent="1" vertex="1">
          <mxGeometry x="1013" y="270.5" width="40" height="20" as="geometry" />
        </mxCell>
        <mxCell id="96Z2TRk2g2hctk14bLeR-137" value="BatchNorm" style="rounded=1;whiteSpace=wrap;html=1;fillColor=#ffe6cc;strokeColor=#d79b00;" parent="1" vertex="1">
          <mxGeometry x="1053" y="270.5" width="87" height="20" as="geometry" />
        </mxCell>
        <mxCell id="96Z2TRk2g2hctk14bLeR-138" value="SiLU" style="rounded=1;whiteSpace=wrap;html=1;fillColor=#b0e3e6;strokeColor=#0e8088;" parent="1" vertex="1">
          <mxGeometry x="1140" y="270.5" width="47" height="20" as="geometry" />
        </mxCell>
        <mxCell id="96Z2TRk2g2hctk14bLeR-142" value="ELAN" style="rounded=1;whiteSpace=wrap;html=1;fillColor=#d5e8d4;strokeColor=#82b366;" parent="1" vertex="1">
          <mxGeometry x="827" y="394" width="50" height="20" as="geometry" />
        </mxCell>
        <mxCell id="slHn6gZgomVeKo_xS-rV-7" style="edgeStyle=orthogonalEdgeStyle;rounded=0;orthogonalLoop=1;jettySize=auto;html=1;exitX=1;exitY=0.5;exitDx=0;exitDy=0;entryX=0;entryY=0.5;entryDx=0;entryDy=0;" edge="1" parent="1" source="96Z2TRk2g2hctk14bLeR-143" target="96Z2TRk2g2hctk14bLeR-150">
          <mxGeometry relative="1" as="geometry" />
        </mxCell>
        <mxCell id="slHn6gZgomVeKo_xS-rV-15" style="edgeStyle=orthogonalEdgeStyle;rounded=0;orthogonalLoop=1;jettySize=auto;html=1;exitX=1;exitY=0.5;exitDx=0;exitDy=0;entryX=0.5;entryY=0;entryDx=0;entryDy=0;" edge="1" parent="1" source="96Z2TRk2g2hctk14bLeR-143" target="KWhuUIyhuwhSW9V_fMmg-5">
          <mxGeometry relative="1" as="geometry">
            <mxPoint x="1270" y="358" as="targetPoint" />
            <Array as="points">
              <mxPoint x="987" y="383" />
              <mxPoint x="987" y="338" />
              <mxPoint x="1252" y="338" />
            </Array>
          </mxGeometry>
        </mxCell>
        <mxCell id="96Z2TRk2g2hctk14bLeR-143" value="CBS" style="rounded=1;whiteSpace=wrap;html=1;fillColor=#dae8fc;strokeColor=#6c8ebf;" parent="1" vertex="1">
          <mxGeometry x="943" y="373" width="40" height="20" as="geometry" />
        </mxCell>
        <mxCell id="slHn6gZgomVeKo_xS-rV-16" style="edgeStyle=orthogonalEdgeStyle;rounded=0;orthogonalLoop=1;jettySize=auto;html=1;exitX=1;exitY=0.5;exitDx=0;exitDy=0;" edge="1" parent="1" source="96Z2TRk2g2hctk14bLeR-145">
          <mxGeometry relative="1" as="geometry">
            <mxPoint x="1349" y="383.0244827586207" as="targetPoint" />
          </mxGeometry>
        </mxCell>
        <mxCell id="96Z2TRk2g2hctk14bLeR-145" value="CBS" style="rounded=1;whiteSpace=wrap;html=1;fillColor=#dae8fc;strokeColor=#6c8ebf;" parent="1" vertex="1">
          <mxGeometry x="1290" y="372.99" width="40" height="20" as="geometry" />
        </mxCell>
        <mxCell id="slHn6gZgomVeKo_xS-rV-13" style="edgeStyle=orthogonalEdgeStyle;rounded=0;orthogonalLoop=1;jettySize=auto;html=1;exitX=1;exitY=0.5;exitDx=0;exitDy=0;entryX=0.5;entryY=1;entryDx=0;entryDy=0;" edge="1" parent="1" source="96Z2TRk2g2hctk14bLeR-146" target="KWhuUIyhuwhSW9V_fMmg-5">
          <mxGeometry relative="1" as="geometry" />
        </mxCell>
        <mxCell id="96Z2TRk2g2hctk14bLeR-146" value="CBS" style="rounded=1;whiteSpace=wrap;html=1;fillColor=#dae8fc;strokeColor=#6c8ebf;" parent="1" vertex="1">
          <mxGeometry x="943" y="418" width="40" height="20" as="geometry" />
        </mxCell>
        <mxCell id="96Z2TRk2g2hctk14bLeR-157" style="edgeStyle=orthogonalEdgeStyle;rounded=0;orthogonalLoop=1;jettySize=auto;html=1;exitX=1;exitY=0.5;exitDx=0;exitDy=0;entryX=0;entryY=0.5;entryDx=0;entryDy=0;" parent="1" source="96Z2TRk2g2hctk14bLeR-147" target="KWhuUIyhuwhSW9V_fMmg-5" edge="1">
          <mxGeometry relative="1" as="geometry">
            <mxPoint x="1190.000000000005" y="383.02" as="targetPoint" />
          </mxGeometry>
        </mxCell>
        <mxCell id="96Z2TRk2g2hctk14bLeR-147" value="CBS" style="rounded=1;whiteSpace=wrap;html=1;fillColor=#dae8fc;strokeColor=#6c8ebf;" parent="1" vertex="1">
          <mxGeometry x="1175" y="372.99" width="40" height="20" as="geometry" />
        </mxCell>
        <mxCell id="slHn6gZgomVeKo_xS-rV-10" style="edgeStyle=orthogonalEdgeStyle;rounded=0;orthogonalLoop=1;jettySize=auto;html=1;exitX=1;exitY=0.5;exitDx=0;exitDy=0;entryX=0;entryY=0.5;entryDx=0;entryDy=0;" edge="1" parent="1" source="96Z2TRk2g2hctk14bLeR-148" target="96Z2TRk2g2hctk14bLeR-147">
          <mxGeometry relative="1" as="geometry" />
        </mxCell>
        <mxCell id="96Z2TRk2g2hctk14bLeR-148" value="CBS" style="rounded=1;whiteSpace=wrap;html=1;fillColor=#dae8fc;strokeColor=#6c8ebf;" parent="1" vertex="1">
          <mxGeometry x="1120.25" y="372.99" width="40" height="20" as="geometry" />
        </mxCell>
        <mxCell id="slHn6gZgomVeKo_xS-rV-9" style="edgeStyle=orthogonalEdgeStyle;rounded=0;orthogonalLoop=1;jettySize=auto;html=1;exitX=1;exitY=0.5;exitDx=0;exitDy=0;entryX=0;entryY=0.5;entryDx=0;entryDy=0;" edge="1" parent="1" source="96Z2TRk2g2hctk14bLeR-149" target="96Z2TRk2g2hctk14bLeR-148">
          <mxGeometry relative="1" as="geometry">
            <mxPoint x="1110" y="383.01999999999987" as="sourcePoint" />
          </mxGeometry>
        </mxCell>
        <mxCell id="slHn6gZgomVeKo_xS-rV-18" style="edgeStyle=orthogonalEdgeStyle;rounded=0;orthogonalLoop=1;jettySize=auto;html=1;exitX=1;exitY=0.5;exitDx=0;exitDy=0;entryX=0.5;entryY=0;entryDx=0;entryDy=0;" edge="1" parent="1" source="96Z2TRk2g2hctk14bLeR-149" target="KWhuUIyhuwhSW9V_fMmg-5">
          <mxGeometry relative="1" as="geometry">
            <Array as="points">
              <mxPoint x="1110" y="383" />
              <mxPoint x="1110" y="348" />
              <mxPoint x="1252" y="348" />
            </Array>
          </mxGeometry>
        </mxCell>
        <mxCell id="96Z2TRk2g2hctk14bLeR-149" value="CBS" style="rounded=1;whiteSpace=wrap;html=1;fillColor=#dae8fc;strokeColor=#6c8ebf;" parent="1" vertex="1">
          <mxGeometry x="1060" y="372.98999999999995" width="40" height="20" as="geometry" />
        </mxCell>
        <mxCell id="slHn6gZgomVeKo_xS-rV-8" style="edgeStyle=orthogonalEdgeStyle;rounded=0;orthogonalLoop=1;jettySize=auto;html=1;exitX=1;exitY=0.5;exitDx=0;exitDy=0;entryX=0;entryY=0.5;entryDx=0;entryDy=0;" edge="1" parent="1" source="96Z2TRk2g2hctk14bLeR-150" target="96Z2TRk2g2hctk14bLeR-149">
          <mxGeometry relative="1" as="geometry" />
        </mxCell>
        <mxCell id="96Z2TRk2g2hctk14bLeR-150" value="CBS" style="rounded=1;whiteSpace=wrap;html=1;fillColor=#dae8fc;strokeColor=#6c8ebf;" parent="1" vertex="1">
          <mxGeometry x="1007" y="373" width="40" height="20" as="geometry" />
        </mxCell>
        <mxCell id="96Z2TRk2g2hctk14bLeR-158" style="edgeStyle=orthogonalEdgeStyle;rounded=0;orthogonalLoop=1;jettySize=auto;html=1;exitX=1;exitY=0.5;exitDx=0;exitDy=0;entryX=0;entryY=0.5;entryDx=0;entryDy=0;" parent="1" source="KWhuUIyhuwhSW9V_fMmg-5" target="96Z2TRk2g2hctk14bLeR-145" edge="1">
          <mxGeometry relative="1" as="geometry">
            <mxPoint x="1219.999999999995" y="383.02" as="sourcePoint" />
          </mxGeometry>
        </mxCell>
        <mxCell id="96Z2TRk2g2hctk14bLeR-197" value="MPConv" style="rounded=1;whiteSpace=wrap;html=1;" parent="1" vertex="1">
          <mxGeometry x="827" y="175.5" width="50" height="20" as="geometry" />
        </mxCell>
        <mxCell id="96Z2TRk2g2hctk14bLeR-198" value="CBS" style="rounded=1;whiteSpace=wrap;html=1;fillColor=#dae8fc;strokeColor=#6c8ebf;" parent="1" vertex="1">
          <mxGeometry x="929" y="213" width="40" height="20" as="geometry" />
        </mxCell>
        <mxCell id="96Z2TRk2g2hctk14bLeR-200" value="Maxpooling_3" style="rounded=1;whiteSpace=wrap;html=1;fillColor=#bac8d3;strokeColor=#23445d;" parent="1" vertex="1">
          <mxGeometry x="929" y="133" width="74" height="20" as="geometry" />
        </mxCell>
        <mxCell id="96Z2TRk2g2hctk14bLeR-222" style="edgeStyle=orthogonalEdgeStyle;rounded=0;orthogonalLoop=1;jettySize=auto;html=1;exitX=1;exitY=0.5;exitDx=0;exitDy=0;entryX=0.5;entryY=1;entryDx=0;entryDy=0;" parent="1" source="96Z2TRk2g2hctk14bLeR-207" target="96Z2TRk2g2hctk14bLeR-218" edge="1">
          <mxGeometry relative="1" as="geometry" />
        </mxCell>
        <mxCell id="96Z2TRk2g2hctk14bLeR-207" value="CBS" style="rounded=1;whiteSpace=wrap;html=1;fillColor=#dae8fc;strokeColor=#6c8ebf;" parent="1" vertex="1">
          <mxGeometry x="969" y="213" width="40" height="20" as="geometry" />
        </mxCell>
        <mxCell id="96Z2TRk2g2hctk14bLeR-219" style="edgeStyle=orthogonalEdgeStyle;rounded=0;orthogonalLoop=1;jettySize=auto;html=1;exitX=1;exitY=0.5;exitDx=0;exitDy=0;entryX=0.5;entryY=0;entryDx=0;entryDy=0;" parent="1" source="96Z2TRk2g2hctk14bLeR-202" target="96Z2TRk2g2hctk14bLeR-218" edge="1">
          <mxGeometry relative="1" as="geometry" />
        </mxCell>
        <mxCell id="96Z2TRk2g2hctk14bLeR-202" value="CBS" style="rounded=1;whiteSpace=wrap;html=1;fillColor=#dae8fc;strokeColor=#6c8ebf;" parent="1" vertex="1">
          <mxGeometry x="1003" y="133" width="40" height="20" as="geometry" />
        </mxCell>
        <mxCell id="96Z2TRk2g2hctk14bLeR-218" value="cat" style="ellipse;whiteSpace=wrap;html=1;rounded=1;" parent="1" vertex="1">
          <mxGeometry x="1043" y="170.5" width="30" height="30" as="geometry" />
        </mxCell>
        <mxCell id="96Z2TRk2g2hctk14bLeR-230" value="SPPCSPC" style="rounded=1;whiteSpace=wrap;html=1;fillColor=#ffff88;strokeColor=#36393d;" parent="1" vertex="1">
          <mxGeometry x="827" y="627.36" width="63.5" height="20" as="geometry" />
        </mxCell>
        <mxCell id="96Z2TRk2g2hctk14bLeR-280" value="=" style="text;html=1;strokeColor=none;fillColor=none;align=center;verticalAlign=middle;whiteSpace=wrap;rounded=0;strokeWidth=1;fontSize=30;" parent="1" vertex="1">
          <mxGeometry x="980" y="265.5" width="27" height="30" as="geometry" />
        </mxCell>
        <mxCell id="96Z2TRk2g2hctk14bLeR-285" value="" style="edgeStyle=orthogonalEdgeStyle;rounded=0;orthogonalLoop=1;jettySize=auto;html=1;fontSize=30;" parent="1" source="96Z2TRk2g2hctk14bLeR-281" target="96Z2TRk2g2hctk14bLeR-21" edge="1">
          <mxGeometry relative="1" as="geometry" />
        </mxCell>
        <mxCell id="96Z2TRk2g2hctk14bLeR-281" value="MPConv" style="rounded=1;whiteSpace=wrap;html=1;fillColor=#fad9d5;strokeColor=#ae4132;" parent="1" vertex="1">
          <mxGeometry x="36" y="465" width="120" height="20" as="geometry" />
        </mxCell>
        <mxCell id="96Z2TRk2g2hctk14bLeR-288" style="edgeStyle=orthogonalEdgeStyle;rounded=0;orthogonalLoop=1;jettySize=auto;html=1;exitX=1;exitY=0.5;exitDx=0;exitDy=0;fontSize=30;entryX=0;entryY=0.5;entryDx=0;entryDy=0;" parent="1" source="96Z2TRk2g2hctk14bLeR-286" target="96Z2TRk2g2hctk14bLeR-143" edge="1">
          <mxGeometry relative="1" as="geometry">
            <mxPoint x="927" y="406" as="targetPoint" />
          </mxGeometry>
        </mxCell>
        <mxCell id="slHn6gZgomVeKo_xS-rV-12" style="edgeStyle=orthogonalEdgeStyle;rounded=0;orthogonalLoop=1;jettySize=auto;html=1;exitX=1;exitY=0.5;exitDx=0;exitDy=0;entryX=0;entryY=0.5;entryDx=0;entryDy=0;" edge="1" parent="1" source="96Z2TRk2g2hctk14bLeR-286" target="96Z2TRk2g2hctk14bLeR-146">
          <mxGeometry relative="1" as="geometry" />
        </mxCell>
        <mxCell id="96Z2TRk2g2hctk14bLeR-286" value="=" style="text;html=1;strokeColor=none;fillColor=none;align=center;verticalAlign=middle;whiteSpace=wrap;rounded=0;strokeWidth=1;fontSize=30;" parent="1" vertex="1">
          <mxGeometry x="873.25" y="391" width="27" height="30" as="geometry" />
        </mxCell>
        <mxCell id="slHn6gZgomVeKo_xS-rV-75" style="edgeStyle=orthogonalEdgeStyle;rounded=0;orthogonalLoop=1;jettySize=auto;html=1;exitX=1;exitY=0.5;exitDx=0;exitDy=0;entryX=0;entryY=0.5;entryDx=0;entryDy=0;" edge="1" parent="1" source="96Z2TRk2g2hctk14bLeR-293" target="slHn6gZgomVeKo_xS-rV-65">
          <mxGeometry relative="1" as="geometry" />
        </mxCell>
        <mxCell id="slHn6gZgomVeKo_xS-rV-76" style="edgeStyle=orthogonalEdgeStyle;rounded=0;orthogonalLoop=1;jettySize=auto;html=1;exitX=1;exitY=0.5;exitDx=0;exitDy=0;entryX=0;entryY=0.5;entryDx=0;entryDy=0;" edge="1" parent="1" source="96Z2TRk2g2hctk14bLeR-293" target="slHn6gZgomVeKo_xS-rV-68">
          <mxGeometry relative="1" as="geometry" />
        </mxCell>
        <mxCell id="96Z2TRk2g2hctk14bLeR-293" value="=" style="text;html=1;strokeColor=none;fillColor=none;align=center;verticalAlign=middle;whiteSpace=wrap;rounded=0;strokeWidth=1;fontSize=30;" parent="1" vertex="1">
          <mxGeometry x="895" y="623.0000000000001" width="27" height="30" as="geometry" />
        </mxCell>
        <mxCell id="96Z2TRk2g2hctk14bLeR-298" style="edgeStyle=orthogonalEdgeStyle;rounded=0;orthogonalLoop=1;jettySize=auto;html=1;exitX=1;exitY=0.5;exitDx=0;exitDy=0;entryX=0;entryY=0.5;entryDx=0;entryDy=0;fontSize=30;" parent="1" source="96Z2TRk2g2hctk14bLeR-297" target="96Z2TRk2g2hctk14bLeR-200" edge="1">
          <mxGeometry relative="1" as="geometry">
            <Array as="points">
              <mxPoint x="917" y="186" />
              <mxPoint x="917" y="143" />
            </Array>
          </mxGeometry>
        </mxCell>
        <mxCell id="96Z2TRk2g2hctk14bLeR-300" style="edgeStyle=orthogonalEdgeStyle;rounded=0;orthogonalLoop=1;jettySize=auto;html=1;exitX=1;exitY=0.5;exitDx=0;exitDy=0;entryX=0;entryY=0.5;entryDx=0;entryDy=0;fontSize=30;" parent="1" source="96Z2TRk2g2hctk14bLeR-297" target="96Z2TRk2g2hctk14bLeR-198" edge="1">
          <mxGeometry relative="1" as="geometry">
            <Array as="points">
              <mxPoint x="917" y="185" />
              <mxPoint x="917" y="223" />
            </Array>
          </mxGeometry>
        </mxCell>
        <mxCell id="96Z2TRk2g2hctk14bLeR-297" value="=" style="text;html=1;strokeColor=none;fillColor=none;align=center;verticalAlign=middle;whiteSpace=wrap;rounded=0;strokeWidth=1;fontSize=30;" parent="1" vertex="1">
          <mxGeometry x="877" y="170.5" width="27" height="30" as="geometry" />
        </mxCell>
        <mxCell id="96Z2TRk2g2hctk14bLeR-331" value="640*640*3" style="text;html=1;strokeColor=none;fillColor=none;align=center;verticalAlign=middle;whiteSpace=wrap;rounded=0;strokeWidth=1;fontSize=12;" parent="1" vertex="1">
          <mxGeometry x="-50" y="220" width="60" height="30" as="geometry" />
        </mxCell>
        <mxCell id="96Z2TRk2g2hctk14bLeR-332" value="640*640*32" style="text;html=1;strokeColor=none;fillColor=none;align=center;verticalAlign=middle;whiteSpace=wrap;rounded=0;strokeWidth=1;fontSize=12;" parent="1" vertex="1">
          <mxGeometry x="-80" y="320" width="59" height="30" as="geometry" />
        </mxCell>
        <mxCell id="96Z2TRk2g2hctk14bLeR-333" value="320*320*64" style="text;html=1;strokeColor=none;fillColor=none;align=center;verticalAlign=middle;whiteSpace=wrap;rounded=0;strokeWidth=1;fontSize=12;" parent="1" vertex="1">
          <mxGeometry x="-80" y="380" width="60" height="30" as="geometry" />
        </mxCell>
        <mxCell id="96Z2TRk2g2hctk14bLeR-334" value="320*320*64" style="text;html=1;strokeColor=none;fillColor=none;align=center;verticalAlign=middle;whiteSpace=wrap;rounded=0;strokeWidth=1;fontSize=12;" parent="1" vertex="1">
          <mxGeometry x="-80" y="440" width="60" height="30" as="geometry" />
        </mxCell>
        <mxCell id="96Z2TRk2g2hctk14bLeR-335" value="160*160*128" style="text;html=1;strokeColor=none;fillColor=none;align=center;verticalAlign=middle;whiteSpace=wrap;rounded=0;strokeWidth=1;fontSize=12;" parent="1" vertex="1">
          <mxGeometry x="-80" y="509" width="60" height="30" as="geometry" />
        </mxCell>
        <mxCell id="96Z2TRk2g2hctk14bLeR-336" value="160*160*256" style="text;html=1;strokeColor=none;fillColor=none;align=center;verticalAlign=middle;whiteSpace=wrap;rounded=0;strokeWidth=1;fontSize=12;" parent="1" vertex="1">
          <mxGeometry x="-80" y="575" width="60" height="30" as="geometry" />
        </mxCell>
        <mxCell id="96Z2TRk2g2hctk14bLeR-337" value="80*80*256" style="text;html=1;strokeColor=none;fillColor=none;align=center;verticalAlign=middle;whiteSpace=wrap;rounded=0;strokeWidth=1;fontSize=12;" parent="1" vertex="1">
          <mxGeometry x="102" y="607.5" width="60" height="30" as="geometry" />
        </mxCell>
        <mxCell id="96Z2TRk2g2hctk14bLeR-341" value="80*80*512" style="text;html=1;strokeColor=none;fillColor=none;align=center;verticalAlign=middle;whiteSpace=wrap;rounded=0;strokeWidth=1;fontSize=12;" parent="1" vertex="1">
          <mxGeometry x="96" y="532" width="60" height="30" as="geometry" />
        </mxCell>
        <mxCell id="96Z2TRk2g2hctk14bLeR-342" value="40*40*512" style="text;html=1;strokeColor=none;fillColor=none;align=center;verticalAlign=middle;whiteSpace=wrap;rounded=0;strokeWidth=1;fontSize=12;" parent="1" vertex="1">
          <mxGeometry x="96" y="420" width="60" height="30" as="geometry" />
        </mxCell>
        <mxCell id="96Z2TRk2g2hctk14bLeR-343" value="40*40*1024" style="text;html=1;strokeColor=none;fillColor=none;align=center;verticalAlign=middle;whiteSpace=wrap;rounded=0;strokeWidth=1;fontSize=12;" parent="1" vertex="1">
          <mxGeometry x="101" y="318" width="60" height="30" as="geometry" />
        </mxCell>
        <mxCell id="96Z2TRk2g2hctk14bLeR-344" value="20*20*1024" style="text;html=1;strokeColor=none;fillColor=none;align=center;verticalAlign=middle;whiteSpace=wrap;rounded=0;strokeWidth=1;fontSize=12;" parent="1" vertex="1">
          <mxGeometry x="101" y="255" width="60" height="30" as="geometry" />
        </mxCell>
        <mxCell id="96Z2TRk2g2hctk14bLeR-345" value="20*20*1024" style="text;html=1;strokeColor=none;fillColor=none;align=center;verticalAlign=middle;whiteSpace=wrap;rounded=0;strokeWidth=1;fontSize=12;" parent="1" vertex="1">
          <mxGeometry x="101" y="190" width="60" height="30" as="geometry" />
        </mxCell>
        <mxCell id="96Z2TRk2g2hctk14bLeR-346" value="40*40*256" style="text;html=1;strokeColor=none;fillColor=none;align=center;verticalAlign=middle;whiteSpace=wrap;rounded=0;strokeWidth=1;fontSize=12;" parent="1" vertex="1">
          <mxGeometry x="313.5" y="318" width="60" height="30" as="geometry" />
        </mxCell>
        <mxCell id="96Z2TRk2g2hctk14bLeR-348" value="20*20*256" style="text;html=1;strokeColor=none;fillColor=none;align=center;verticalAlign=middle;whiteSpace=wrap;rounded=0;strokeWidth=1;fontSize=12;" parent="1" vertex="1">
          <mxGeometry x="315" y="270" width="60" height="30" as="geometry" />
        </mxCell>
        <mxCell id="96Z2TRk2g2hctk14bLeR-349" value="20*20*512" style="text;html=1;strokeColor=none;fillColor=none;align=center;verticalAlign=middle;whiteSpace=wrap;rounded=0;strokeWidth=1;fontSize=12;" parent="1" vertex="1">
          <mxGeometry x="314" y="225" width="60" height="30" as="geometry" />
        </mxCell>
        <mxCell id="96Z2TRk2g2hctk14bLeR-351" value="40*40*512" style="text;html=1;strokeColor=none;fillColor=none;align=center;verticalAlign=middle;whiteSpace=wrap;rounded=0;strokeWidth=1;fontSize=12;" parent="1" vertex="1">
          <mxGeometry x="317.5" y="362" width="56" height="30" as="geometry" />
        </mxCell>
        <mxCell id="96Z2TRk2g2hctk14bLeR-352" value="40*40*256" style="text;html=1;strokeColor=none;fillColor=none;align=center;verticalAlign=middle;whiteSpace=wrap;rounded=0;strokeWidth=1;fontSize=12;" parent="1" vertex="1">
          <mxGeometry x="313.5" y="440" width="56" height="30" as="geometry" />
        </mxCell>
        <mxCell id="96Z2TRk2g2hctk14bLeR-355" value="40*40*128" style="text;html=1;strokeColor=none;fillColor=none;align=center;verticalAlign=middle;whiteSpace=wrap;rounded=0;strokeWidth=1;fontSize=12;" parent="1" vertex="1">
          <mxGeometry x="315" y="489" width="56" height="30" as="geometry" />
        </mxCell>
        <mxCell id="96Z2TRk2g2hctk14bLeR-356" value="80*80*128" style="text;html=1;strokeColor=none;fillColor=none;align=center;verticalAlign=middle;whiteSpace=wrap;rounded=0;strokeWidth=1;fontSize=12;" parent="1" vertex="1">
          <mxGeometry x="317.5" y="532" width="56" height="30" as="geometry" />
        </mxCell>
        <mxCell id="96Z2TRk2g2hctk14bLeR-357" value="80*80*128" style="text;html=1;strokeColor=none;fillColor=none;align=center;verticalAlign=middle;whiteSpace=wrap;rounded=0;strokeWidth=1;fontSize=12;" parent="1" vertex="1">
          <mxGeometry x="220" y="532" width="56" height="30" as="geometry" />
        </mxCell>
        <mxCell id="96Z2TRk2g2hctk14bLeR-358" value="80*80*256" style="text;html=1;strokeColor=none;fillColor=none;align=center;verticalAlign=middle;whiteSpace=wrap;rounded=0;strokeWidth=1;fontSize=12;" parent="1" vertex="1">
          <mxGeometry x="318" y="585" width="56" height="30" as="geometry" />
        </mxCell>
        <mxCell id="96Z2TRk2g2hctk14bLeR-361" value="40*40*256" style="text;html=1;strokeColor=none;fillColor=none;align=center;verticalAlign=middle;whiteSpace=wrap;rounded=0;strokeWidth=1;fontSize=12;" parent="1" vertex="1">
          <mxGeometry x="495" y="543" width="56" height="30" as="geometry" />
        </mxCell>
        <mxCell id="96Z2TRk2g2hctk14bLeR-363" value="40*40*1024" style="text;html=1;strokeColor=none;fillColor=none;align=center;verticalAlign=middle;whiteSpace=wrap;rounded=0;strokeWidth=1;fontSize=12;" parent="1" vertex="1">
          <mxGeometry x="501" y="340" width="56" height="30" as="geometry" />
        </mxCell>
        <mxCell id="96Z2TRk2g2hctk14bLeR-364" value="40*40*256" style="text;html=1;strokeColor=none;fillColor=none;align=center;verticalAlign=middle;whiteSpace=wrap;rounded=0;strokeWidth=1;fontSize=12;" parent="1" vertex="1">
          <mxGeometry x="546" y="364" width="56" height="30" as="geometry" />
        </mxCell>
        <mxCell id="96Z2TRk2g2hctk14bLeR-365" value="20*20*512" style="text;html=1;strokeColor=none;fillColor=none;align=center;verticalAlign=middle;whiteSpace=wrap;rounded=0;strokeWidth=1;fontSize=12;" parent="1" vertex="1">
          <mxGeometry x="501" y="280" width="56" height="30" as="geometry" />
        </mxCell>
        <mxCell id="96Z2TRk2g2hctk14bLeR-366" value="20*20*1024" style="text;html=1;strokeColor=none;fillColor=none;align=center;verticalAlign=middle;whiteSpace=wrap;rounded=0;strokeWidth=1;fontSize=12;" parent="1" vertex="1">
          <mxGeometry x="501" y="220" width="56" height="30" as="geometry" />
        </mxCell>
        <mxCell id="96Z2TRk2g2hctk14bLeR-367" value="20*20*2048" style="text;html=1;strokeColor=none;fillColor=none;align=center;verticalAlign=middle;whiteSpace=wrap;rounded=0;strokeWidth=1;fontSize=12;" parent="1" vertex="1">
          <mxGeometry x="495" y="165" width="56" height="30" as="geometry" />
        </mxCell>
        <mxCell id="96Z2TRk2g2hctk14bLeR-368" value="20*20*512" style="text;html=1;strokeColor=none;fillColor=none;align=center;verticalAlign=middle;whiteSpace=wrap;rounded=0;strokeWidth=1;fontSize=12;" parent="1" vertex="1">
          <mxGeometry x="551" y="120" width="56" height="30" as="geometry" />
        </mxCell>
        <mxCell id="96Z2TRk2g2hctk14bLeR-369" value="80*80*128" style="text;html=1;strokeColor=none;fillColor=none;align=center;verticalAlign=middle;whiteSpace=wrap;rounded=0;strokeWidth=1;fontSize=12;" parent="1" vertex="1">
          <mxGeometry x="547" y="645" width="56" height="30" as="geometry" />
        </mxCell>
        <mxCell id="96Z2TRk2g2hctk14bLeR-370" value="20*20*85" style="text;html=1;strokeColor=none;fillColor=none;align=center;verticalAlign=middle;whiteSpace=wrap;rounded=0;strokeWidth=1;fontSize=12;" parent="1" vertex="1">
          <mxGeometry x="744" y="170" width="56" height="30" as="geometry" />
        </mxCell>
        <mxCell id="96Z2TRk2g2hctk14bLeR-371" value="40*40*85" style="text;html=1;strokeColor=none;fillColor=none;align=center;verticalAlign=middle;whiteSpace=wrap;rounded=0;strokeWidth=1;fontSize=12;" parent="1" vertex="1">
          <mxGeometry x="744" y="416" width="56" height="30" as="geometry" />
        </mxCell>
        <mxCell id="96Z2TRk2g2hctk14bLeR-372" value="80*80*85" style="text;html=1;strokeColor=none;fillColor=none;align=center;verticalAlign=middle;whiteSpace=wrap;rounded=0;strokeWidth=1;fontSize=12;" parent="1" vertex="1">
          <mxGeometry x="743" y="687" width="56" height="30" as="geometry" />
        </mxCell>
        <mxCell id="fXJZHlOHp_XLVNjCbuLn-1" value="40*40*256" style="text;html=1;strokeColor=none;fillColor=none;align=center;verticalAlign=middle;whiteSpace=wrap;rounded=0;strokeWidth=1;fontSize=12;" parent="1" vertex="1">
          <mxGeometry x="243.5" y="318" width="60" height="30" as="geometry" />
        </mxCell>
        <mxCell id="fXJZHlOHp_XLVNjCbuLn-3" style="edgeStyle=orthogonalEdgeStyle;rounded=0;orthogonalLoop=1;jettySize=auto;html=1;entryX=0;entryY=0.5;entryDx=0;entryDy=0;exitX=1;exitY=0.5;exitDx=0;exitDy=0;" parent="1" source="96Z2TRk2g2hctk14bLeR-218" edge="1">
          <mxGeometry relative="1" as="geometry">
            <mxPoint x="1087" y="185.3599999999998" as="targetPoint" />
            <mxPoint x="1077" y="193" as="sourcePoint" />
          </mxGeometry>
        </mxCell>
        <mxCell id="a6rZ2WNsQKCH5PQ9cZ_o-3" style="edgeStyle=orthogonalEdgeStyle;rounded=0;orthogonalLoop=1;jettySize=auto;html=1;exitX=1;exitY=0.5;exitDx=0;exitDy=0;entryX=0;entryY=0.5;entryDx=0;entryDy=0;fontFamily=Tahoma;fontSize=6;" parent="1" source="96Z2TRk2g2hctk14bLeR-43" target="96Z2TRk2g2hctk14bLeR-48" edge="1">
          <mxGeometry relative="1" as="geometry">
            <mxPoint x="273.5" y="565" as="sourcePoint" />
          </mxGeometry>
        </mxCell>
        <mxCell id="a6rZ2WNsQKCH5PQ9cZ_o-8" style="edgeStyle=orthogonalEdgeStyle;rounded=0;orthogonalLoop=1;jettySize=auto;html=1;exitX=1;exitY=0.5;exitDx=0;exitDy=0;entryX=0;entryY=0.5;entryDx=0;entryDy=0;fontFamily=Tahoma;fontSize=6;" parent="1" source="96Z2TRk2g2hctk14bLeR-40" target="96Z2TRk2g2hctk14bLeR-37" edge="1">
          <mxGeometry relative="1" as="geometry">
            <mxPoint x="276" y="349.9999999999999" as="sourcePoint" />
          </mxGeometry>
        </mxCell>
        <mxCell id="a6rZ2WNsQKCH5PQ9cZ_o-12" style="edgeStyle=orthogonalEdgeStyle;rounded=0;orthogonalLoop=1;jettySize=auto;html=1;exitX=0.5;exitY=1;exitDx=0;exitDy=0;entryX=0.5;entryY=0;entryDx=0;entryDy=0;fontFamily=Tahoma;fontSize=6;" parent="1" source="96Z2TRk2g2hctk14bLeR-54" target="96Z2TRk2g2hctk14bLeR-60" edge="1">
          <mxGeometry relative="1" as="geometry">
            <mxPoint x="310" y="506" as="sourcePoint" />
          </mxGeometry>
        </mxCell>
        <mxCell id="a6rZ2WNsQKCH5PQ9cZ_o-15" style="edgeStyle=orthogonalEdgeStyle;rounded=0;orthogonalLoop=1;jettySize=auto;html=1;exitX=0.5;exitY=1;exitDx=0;exitDy=0;entryX=0.5;entryY=0;entryDx=0;entryDy=0;fontFamily=Tahoma;fontSize=6;" parent="1" source="96Z2TRk2g2hctk14bLeR-30" target="96Z2TRk2g2hctk14bLeR-32" edge="1">
          <mxGeometry relative="1" as="geometry">
            <mxPoint x="310" y="287" as="sourcePoint" />
          </mxGeometry>
        </mxCell>
        <mxCell id="a6rZ2WNsQKCH5PQ9cZ_o-16" style="edgeStyle=orthogonalEdgeStyle;rounded=0;orthogonalLoop=1;jettySize=auto;html=1;exitX=0.5;exitY=1;exitDx=0;exitDy=0;fontFamily=Tahoma;fontSize=6;" parent="1" source="96Z2TRk2g2hctk14bLeR-348" target="96Z2TRk2g2hctk14bLeR-348" edge="1">
          <mxGeometry relative="1" as="geometry" />
        </mxCell>
        <mxCell id="KWhuUIyhuwhSW9V_fMmg-5" value="cat" style="ellipse;whiteSpace=wrap;html=1;rounded=1;fillColor=#fff2cc;strokeColor=#d6b656;" parent="1" vertex="1">
          <mxGeometry x="1237" y="368" width="30" height="30" as="geometry" />
        </mxCell>
        <mxCell id="KWhuUIyhuwhSW9V_fMmg-7" value="cat" style="ellipse;whiteSpace=wrap;html=1;rounded=1;fillColor=#fff2cc;strokeColor=#d6b656;" parent="1" vertex="1">
          <mxGeometry x="1043" y="170.5" width="30" height="30" as="geometry" />
        </mxCell>
        <mxCell id="KWhuUIyhuwhSW9V_fMmg-22" style="edgeStyle=orthogonalEdgeStyle;rounded=0;orthogonalLoop=1;jettySize=auto;html=1;exitX=1;exitY=0.5;exitDx=0;exitDy=0;entryX=0;entryY=0.5;entryDx=0;entryDy=0;" parent="1" source="KWhuUIyhuwhSW9V_fMmg-9" target="slHn6gZgomVeKo_xS-rV-64" edge="1">
          <mxGeometry relative="1" as="geometry">
            <mxPoint x="1374" y="612.36" as="targetPoint" />
          </mxGeometry>
        </mxCell>
        <mxCell id="KWhuUIyhuwhSW9V_fMmg-9" value="cat" style="ellipse;whiteSpace=wrap;html=1;rounded=1;fillColor=#fff2cc;strokeColor=#d6b656;" parent="1" vertex="1">
          <mxGeometry x="1324" y="598.0000000000001" width="30" height="30" as="geometry" />
        </mxCell>
        <mxCell id="KWhuUIyhuwhSW9V_fMmg-11" value="MPConv" style="rounded=1;whiteSpace=wrap;html=1;fillColor=#fad9d5;strokeColor=#ae4132;" parent="1" vertex="1">
          <mxGeometry x="827" y="175.5" width="50" height="20" as="geometry" />
        </mxCell>
        <mxCell id="KWhuUIyhuwhSW9V_fMmg-21" style="edgeStyle=orthogonalEdgeStyle;rounded=0;orthogonalLoop=1;jettySize=auto;html=1;exitX=1;exitY=0.5;exitDx=0;exitDy=0;entryX=0;entryY=0.5;entryDx=0;entryDy=0;" parent="1" source="slHn6gZgomVeKo_xS-rV-74" edge="1">
          <mxGeometry relative="1" as="geometry">
            <mxPoint x="1323" y="612.36" as="targetPoint" />
            <mxPoint x="1287" y="612.36" as="sourcePoint" />
          </mxGeometry>
        </mxCell>
        <mxCell id="slHn6gZgomVeKo_xS-rV-2" value="（1,1）" style="text;html=1;strokeColor=none;fillColor=none;align=center;verticalAlign=middle;whiteSpace=wrap;rounded=0;strokeWidth=1;fontSize=12;" vertex="1" parent="1">
          <mxGeometry x="829" y="290.5" width="39" height="30" as="geometry" />
        </mxCell>
        <mxCell id="slHn6gZgomVeKo_xS-rV-3" value="（3,1）" style="text;html=1;strokeColor=none;fillColor=none;align=center;verticalAlign=middle;whiteSpace=wrap;rounded=0;strokeWidth=1;fontSize=12;" vertex="1" parent="1">
          <mxGeometry x="877" y="290.5" width="39" height="30" as="geometry" />
        </mxCell>
        <mxCell id="slHn6gZgomVeKo_xS-rV-4" value="（3,2）" style="text;html=1;strokeColor=none;fillColor=none;align=center;verticalAlign=middle;whiteSpace=wrap;rounded=0;strokeWidth=1;fontSize=12;" vertex="1" parent="1">
          <mxGeometry x="924" y="290.5" width="39" height="30" as="geometry" />
        </mxCell>
        <mxCell id="slHn6gZgomVeKo_xS-rV-19" value="c" style="text;html=1;strokeColor=none;fillColor=none;align=center;verticalAlign=middle;whiteSpace=wrap;rounded=0;strokeWidth=1;fontSize=12;" vertex="1" parent="1">
          <mxGeometry x="897" y="408" width="26" height="20" as="geometry" />
        </mxCell>
        <mxCell id="slHn6gZgomVeKo_xS-rV-20" value="c/2" style="text;html=1;strokeColor=none;fillColor=none;align=center;verticalAlign=middle;whiteSpace=wrap;rounded=0;strokeWidth=1;fontSize=12;" vertex="1" parent="1">
          <mxGeometry x="980" y="388" width="26" height="20" as="geometry" />
        </mxCell>
        <mxCell id="slHn6gZgomVeKo_xS-rV-21" value="c/2" style="text;html=1;strokeColor=none;fillColor=none;align=center;verticalAlign=middle;whiteSpace=wrap;rounded=0;strokeWidth=1;fontSize=12;" vertex="1" parent="1">
          <mxGeometry x="980" y="428" width="26" height="20" as="geometry" />
        </mxCell>
        <mxCell id="slHn6gZgomVeKo_xS-rV-22" value="c/2" style="text;html=1;strokeColor=none;fillColor=none;align=center;verticalAlign=middle;whiteSpace=wrap;rounded=0;strokeWidth=1;fontSize=12;" vertex="1" parent="1">
          <mxGeometry x="1036.5" y="388" width="26" height="20" as="geometry" />
        </mxCell>
        <mxCell id="slHn6gZgomVeKo_xS-rV-23" value="c/2" style="text;html=1;strokeColor=none;fillColor=none;align=center;verticalAlign=middle;whiteSpace=wrap;rounded=0;strokeWidth=1;fontSize=12;" vertex="1" parent="1">
          <mxGeometry x="1094.25" y="388" width="26" height="20" as="geometry" />
        </mxCell>
        <mxCell id="slHn6gZgomVeKo_xS-rV-24" value="c/2" style="text;html=1;strokeColor=none;fillColor=none;align=center;verticalAlign=middle;whiteSpace=wrap;rounded=0;strokeWidth=1;fontSize=12;" vertex="1" parent="1">
          <mxGeometry x="1154" y="388" width="26" height="20" as="geometry" />
        </mxCell>
        <mxCell id="slHn6gZgomVeKo_xS-rV-25" value="2c" style="text;html=1;strokeColor=none;fillColor=none;align=center;verticalAlign=middle;whiteSpace=wrap;rounded=0;strokeWidth=1;fontSize=12;" vertex="1" parent="1">
          <mxGeometry x="1264" y="388" width="26" height="20" as="geometry" />
        </mxCell>
        <mxCell id="slHn6gZgomVeKo_xS-rV-26" value="2c" style="text;html=1;strokeColor=none;fillColor=none;align=center;verticalAlign=middle;whiteSpace=wrap;rounded=0;strokeWidth=1;fontSize=12;" vertex="1" parent="1">
          <mxGeometry x="1340" y="388" width="26" height="20" as="geometry" />
        </mxCell>
        <mxCell id="slHn6gZgomVeKo_xS-rV-28" value="c/2" style="text;html=1;strokeColor=none;fillColor=none;align=center;verticalAlign=middle;whiteSpace=wrap;rounded=0;strokeWidth=1;fontSize=12;" vertex="1" parent="1">
          <mxGeometry x="1214" y="388" width="26" height="20" as="geometry" />
        </mxCell>
        <mxCell id="slHn6gZgomVeKo_xS-rV-30" style="edgeStyle=orthogonalEdgeStyle;rounded=0;orthogonalLoop=1;jettySize=auto;html=1;exitX=1;exitY=0.5;exitDx=0;exitDy=0;entryX=0;entryY=0.5;entryDx=0;entryDy=0;" edge="1" parent="1" source="slHn6gZgomVeKo_xS-rV-32" target="slHn6gZgomVeKo_xS-rV-45">
          <mxGeometry relative="1" as="geometry" />
        </mxCell>
        <mxCell id="slHn6gZgomVeKo_xS-rV-31" style="edgeStyle=orthogonalEdgeStyle;rounded=0;orthogonalLoop=1;jettySize=auto;html=1;exitX=1;exitY=0.5;exitDx=0;exitDy=0;entryX=0.5;entryY=0;entryDx=0;entryDy=0;" edge="1" parent="1" source="slHn6gZgomVeKo_xS-rV-32" target="slHn6gZgomVeKo_xS-rV-50">
          <mxGeometry relative="1" as="geometry">
            <mxPoint x="1270" y="471.98" as="targetPoint" />
            <Array as="points">
              <mxPoint x="987" y="497" />
              <mxPoint x="987" y="448" />
              <mxPoint x="1252" y="448" />
            </Array>
          </mxGeometry>
        </mxCell>
        <mxCell id="slHn6gZgomVeKo_xS-rV-32" value="CBS" style="rounded=1;whiteSpace=wrap;html=1;fillColor=#dae8fc;strokeColor=#6c8ebf;" vertex="1" parent="1">
          <mxGeometry x="943" y="486.98" width="40" height="20" as="geometry" />
        </mxCell>
        <mxCell id="slHn6gZgomVeKo_xS-rV-33" style="edgeStyle=orthogonalEdgeStyle;rounded=0;orthogonalLoop=1;jettySize=auto;html=1;exitX=1;exitY=0.5;exitDx=0;exitDy=0;" edge="1" parent="1" source="slHn6gZgomVeKo_xS-rV-34">
          <mxGeometry relative="1" as="geometry">
            <mxPoint x="1349" y="497.0044827586207" as="targetPoint" />
          </mxGeometry>
        </mxCell>
        <mxCell id="slHn6gZgomVeKo_xS-rV-34" value="CBS" style="rounded=1;whiteSpace=wrap;html=1;fillColor=#dae8fc;strokeColor=#6c8ebf;" vertex="1" parent="1">
          <mxGeometry x="1290" y="486.97" width="40" height="20" as="geometry" />
        </mxCell>
        <mxCell id="slHn6gZgomVeKo_xS-rV-35" style="edgeStyle=orthogonalEdgeStyle;rounded=0;orthogonalLoop=1;jettySize=auto;html=1;exitX=1;exitY=0.5;exitDx=0;exitDy=0;entryX=0.5;entryY=1;entryDx=0;entryDy=0;" edge="1" parent="1" source="slHn6gZgomVeKo_xS-rV-36" target="slHn6gZgomVeKo_xS-rV-50">
          <mxGeometry relative="1" as="geometry" />
        </mxCell>
        <mxCell id="slHn6gZgomVeKo_xS-rV-36" value="CBS" style="rounded=1;whiteSpace=wrap;html=1;fillColor=#dae8fc;strokeColor=#6c8ebf;" vertex="1" parent="1">
          <mxGeometry x="943" y="531.98" width="40" height="20" as="geometry" />
        </mxCell>
        <mxCell id="slHn6gZgomVeKo_xS-rV-37" style="edgeStyle=orthogonalEdgeStyle;rounded=0;orthogonalLoop=1;jettySize=auto;html=1;exitX=1;exitY=0.5;exitDx=0;exitDy=0;entryX=0;entryY=0.5;entryDx=0;entryDy=0;" edge="1" parent="1" source="slHn6gZgomVeKo_xS-rV-38" target="slHn6gZgomVeKo_xS-rV-50">
          <mxGeometry relative="1" as="geometry">
            <mxPoint x="1190.000000000005" y="497" as="targetPoint" />
          </mxGeometry>
        </mxCell>
        <mxCell id="slHn6gZgomVeKo_xS-rV-38" value="CBS" style="rounded=1;whiteSpace=wrap;html=1;fillColor=#dae8fc;strokeColor=#6c8ebf;" vertex="1" parent="1">
          <mxGeometry x="1180" y="486.97" width="40" height="20" as="geometry" />
        </mxCell>
        <mxCell id="slHn6gZgomVeKo_xS-rV-39" style="edgeStyle=orthogonalEdgeStyle;rounded=0;orthogonalLoop=1;jettySize=auto;html=1;exitX=1;exitY=0.5;exitDx=0;exitDy=0;entryX=0;entryY=0.5;entryDx=0;entryDy=0;" edge="1" parent="1" source="slHn6gZgomVeKo_xS-rV-40" target="slHn6gZgomVeKo_xS-rV-38">
          <mxGeometry relative="1" as="geometry" />
        </mxCell>
        <mxCell id="slHn6gZgomVeKo_xS-rV-63" style="edgeStyle=orthogonalEdgeStyle;rounded=0;orthogonalLoop=1;jettySize=auto;html=1;exitX=1;exitY=0.5;exitDx=0;exitDy=0;entryX=0.5;entryY=0;entryDx=0;entryDy=0;" edge="1" parent="1" source="slHn6gZgomVeKo_xS-rV-40" target="slHn6gZgomVeKo_xS-rV-50">
          <mxGeometry relative="1" as="geometry">
            <Array as="points">
              <mxPoint x="1170" y="497" />
              <mxPoint x="1170" y="478" />
              <mxPoint x="1252" y="478" />
            </Array>
          </mxGeometry>
        </mxCell>
        <mxCell id="slHn6gZgomVeKo_xS-rV-40" value="CBS" style="rounded=1;whiteSpace=wrap;html=1;fillColor=#dae8fc;strokeColor=#6c8ebf;" vertex="1" parent="1">
          <mxGeometry x="1120.25" y="486.97" width="40" height="20" as="geometry" />
        </mxCell>
        <mxCell id="slHn6gZgomVeKo_xS-rV-41" style="edgeStyle=orthogonalEdgeStyle;rounded=0;orthogonalLoop=1;jettySize=auto;html=1;exitX=1;exitY=0.5;exitDx=0;exitDy=0;entryX=0;entryY=0.5;entryDx=0;entryDy=0;" edge="1" parent="1" source="slHn6gZgomVeKo_xS-rV-43" target="slHn6gZgomVeKo_xS-rV-40">
          <mxGeometry relative="1" as="geometry">
            <mxPoint x="1110" y="496.9999999999999" as="sourcePoint" />
          </mxGeometry>
        </mxCell>
        <mxCell id="slHn6gZgomVeKo_xS-rV-42" style="edgeStyle=orthogonalEdgeStyle;rounded=0;orthogonalLoop=1;jettySize=auto;html=1;exitX=1;exitY=0.5;exitDx=0;exitDy=0;entryX=0.5;entryY=0;entryDx=0;entryDy=0;" edge="1" parent="1" source="slHn6gZgomVeKo_xS-rV-43" target="slHn6gZgomVeKo_xS-rV-50">
          <mxGeometry relative="1" as="geometry">
            <Array as="points">
              <mxPoint x="1110" y="497" />
              <mxPoint x="1110" y="468" />
              <mxPoint x="1252" y="468" />
            </Array>
          </mxGeometry>
        </mxCell>
        <mxCell id="slHn6gZgomVeKo_xS-rV-43" value="CBS" style="rounded=1;whiteSpace=wrap;html=1;fillColor=#dae8fc;strokeColor=#6c8ebf;" vertex="1" parent="1">
          <mxGeometry x="1060" y="486.96999999999997" width="40" height="20" as="geometry" />
        </mxCell>
        <mxCell id="slHn6gZgomVeKo_xS-rV-44" style="edgeStyle=orthogonalEdgeStyle;rounded=0;orthogonalLoop=1;jettySize=auto;html=1;exitX=1;exitY=0.5;exitDx=0;exitDy=0;entryX=0;entryY=0.5;entryDx=0;entryDy=0;" edge="1" parent="1" source="slHn6gZgomVeKo_xS-rV-45" target="slHn6gZgomVeKo_xS-rV-43">
          <mxGeometry relative="1" as="geometry" />
        </mxCell>
        <mxCell id="slHn6gZgomVeKo_xS-rV-61" style="edgeStyle=orthogonalEdgeStyle;rounded=0;orthogonalLoop=1;jettySize=auto;html=1;exitX=1;exitY=0.5;exitDx=0;exitDy=0;entryX=0.5;entryY=0;entryDx=0;entryDy=0;" edge="1" parent="1" source="slHn6gZgomVeKo_xS-rV-45" target="slHn6gZgomVeKo_xS-rV-50">
          <mxGeometry relative="1" as="geometry">
            <Array as="points">
              <mxPoint x="1050" y="497" />
              <mxPoint x="1050" y="458" />
              <mxPoint x="1252" y="458" />
            </Array>
          </mxGeometry>
        </mxCell>
        <mxCell id="slHn6gZgomVeKo_xS-rV-45" value="CBS" style="rounded=1;whiteSpace=wrap;html=1;fillColor=#dae8fc;strokeColor=#6c8ebf;" vertex="1" parent="1">
          <mxGeometry x="1007" y="486.98" width="40" height="20" as="geometry" />
        </mxCell>
        <mxCell id="slHn6gZgomVeKo_xS-rV-46" style="edgeStyle=orthogonalEdgeStyle;rounded=0;orthogonalLoop=1;jettySize=auto;html=1;exitX=1;exitY=0.5;exitDx=0;exitDy=0;entryX=0;entryY=0.5;entryDx=0;entryDy=0;" edge="1" parent="1" source="slHn6gZgomVeKo_xS-rV-50" target="slHn6gZgomVeKo_xS-rV-34">
          <mxGeometry relative="1" as="geometry">
            <mxPoint x="1219.999999999995" y="497" as="sourcePoint" />
          </mxGeometry>
        </mxCell>
        <mxCell id="slHn6gZgomVeKo_xS-rV-47" style="edgeStyle=orthogonalEdgeStyle;rounded=0;orthogonalLoop=1;jettySize=auto;html=1;exitX=1;exitY=0.5;exitDx=0;exitDy=0;fontSize=30;entryX=0;entryY=0.5;entryDx=0;entryDy=0;" edge="1" parent="1" source="slHn6gZgomVeKo_xS-rV-49" target="slHn6gZgomVeKo_xS-rV-32">
          <mxGeometry relative="1" as="geometry">
            <mxPoint x="927" y="519.98" as="targetPoint" />
          </mxGeometry>
        </mxCell>
        <mxCell id="slHn6gZgomVeKo_xS-rV-48" style="edgeStyle=orthogonalEdgeStyle;rounded=0;orthogonalLoop=1;jettySize=auto;html=1;exitX=1;exitY=0.5;exitDx=0;exitDy=0;entryX=0;entryY=0.5;entryDx=0;entryDy=0;" edge="1" parent="1" source="slHn6gZgomVeKo_xS-rV-49" target="slHn6gZgomVeKo_xS-rV-36">
          <mxGeometry relative="1" as="geometry" />
        </mxCell>
        <mxCell id="slHn6gZgomVeKo_xS-rV-49" value="=" style="text;html=1;strokeColor=none;fillColor=none;align=center;verticalAlign=middle;whiteSpace=wrap;rounded=0;strokeWidth=1;fontSize=30;" vertex="1" parent="1">
          <mxGeometry x="873.25" y="504.98" width="27" height="30" as="geometry" />
        </mxCell>
        <mxCell id="slHn6gZgomVeKo_xS-rV-50" value="cat" style="ellipse;whiteSpace=wrap;html=1;rounded=1;fillColor=#fff2cc;strokeColor=#d6b656;" vertex="1" parent="1">
          <mxGeometry x="1237" y="481.98" width="30" height="30" as="geometry" />
        </mxCell>
        <mxCell id="slHn6gZgomVeKo_xS-rV-51" value="c" style="text;html=1;strokeColor=none;fillColor=none;align=center;verticalAlign=middle;whiteSpace=wrap;rounded=0;strokeWidth=1;fontSize=12;" vertex="1" parent="1">
          <mxGeometry x="897" y="521.98" width="26" height="20" as="geometry" />
        </mxCell>
        <mxCell id="slHn6gZgomVeKo_xS-rV-52" value="c/2" style="text;html=1;strokeColor=none;fillColor=none;align=center;verticalAlign=middle;whiteSpace=wrap;rounded=0;strokeWidth=1;fontSize=12;" vertex="1" parent="1">
          <mxGeometry x="980" y="501.98" width="26" height="20" as="geometry" />
        </mxCell>
        <mxCell id="slHn6gZgomVeKo_xS-rV-53" value="c/2" style="text;html=1;strokeColor=none;fillColor=none;align=center;verticalAlign=middle;whiteSpace=wrap;rounded=0;strokeWidth=1;fontSize=12;" vertex="1" parent="1">
          <mxGeometry x="980" y="541.98" width="26" height="20" as="geometry" />
        </mxCell>
        <mxCell id="slHn6gZgomVeKo_xS-rV-54" value="c/4" style="text;html=1;strokeColor=none;fillColor=none;align=center;verticalAlign=middle;whiteSpace=wrap;rounded=0;strokeWidth=1;fontSize=12;" vertex="1" parent="1">
          <mxGeometry x="1036.5" y="501.98" width="26" height="20" as="geometry" />
        </mxCell>
        <mxCell id="slHn6gZgomVeKo_xS-rV-55" value="c/4" style="text;html=1;strokeColor=none;fillColor=none;align=center;verticalAlign=middle;whiteSpace=wrap;rounded=0;strokeWidth=1;fontSize=12;" vertex="1" parent="1">
          <mxGeometry x="1094.25" y="501.98" width="26" height="20" as="geometry" />
        </mxCell>
        <mxCell id="slHn6gZgomVeKo_xS-rV-56" value="c/4" style="text;html=1;strokeColor=none;fillColor=none;align=center;verticalAlign=middle;whiteSpace=wrap;rounded=0;strokeWidth=1;fontSize=12;" vertex="1" parent="1">
          <mxGeometry x="1154" y="501.98" width="26" height="20" as="geometry" />
        </mxCell>
        <mxCell id="slHn6gZgomVeKo_xS-rV-57" value="2c" style="text;html=1;strokeColor=none;fillColor=none;align=center;verticalAlign=middle;whiteSpace=wrap;rounded=0;strokeWidth=1;fontSize=12;" vertex="1" parent="1">
          <mxGeometry x="1264" y="501.98" width="26" height="20" as="geometry" />
        </mxCell>
        <mxCell id="slHn6gZgomVeKo_xS-rV-58" value="2c" style="text;html=1;strokeColor=none;fillColor=none;align=center;verticalAlign=middle;whiteSpace=wrap;rounded=0;strokeWidth=1;fontSize=12;" vertex="1" parent="1">
          <mxGeometry x="1340" y="501.98" width="26" height="20" as="geometry" />
        </mxCell>
        <mxCell id="slHn6gZgomVeKo_xS-rV-59" value="c/4" style="text;html=1;strokeColor=none;fillColor=none;align=center;verticalAlign=middle;whiteSpace=wrap;rounded=0;strokeWidth=1;fontSize=12;" vertex="1" parent="1">
          <mxGeometry x="1214" y="501.98" width="26" height="20" as="geometry" />
        </mxCell>
        <mxCell id="slHn6gZgomVeKo_xS-rV-60" value="ELAN-H" style="whiteSpace=wrap;html=1;rounded=1;fillColor=#cdeb8b;strokeColor=#36393d;" vertex="1" parent="1">
          <mxGeometry x="830" y="513" width="46" height="20" as="geometry" />
        </mxCell>
        <mxCell id="slHn6gZgomVeKo_xS-rV-64" value="CBS" style="rounded=1;whiteSpace=wrap;html=1;fillColor=#dae8fc;strokeColor=#6c8ebf;" vertex="1" parent="1">
          <mxGeometry x="1377" y="602.36" width="40" height="20" as="geometry" />
        </mxCell>
        <mxCell id="slHn6gZgomVeKo_xS-rV-77" style="edgeStyle=orthogonalEdgeStyle;rounded=0;orthogonalLoop=1;jettySize=auto;html=1;exitX=0.5;exitY=1;exitDx=0;exitDy=0;entryX=0.5;entryY=0;entryDx=0;entryDy=0;" edge="1" parent="1" source="slHn6gZgomVeKo_xS-rV-65" target="slHn6gZgomVeKo_xS-rV-66">
          <mxGeometry relative="1" as="geometry" />
        </mxCell>
        <mxCell id="slHn6gZgomVeKo_xS-rV-65" value="CBS" style="rounded=1;whiteSpace=wrap;html=1;fillColor=#dae8fc;strokeColor=#6c8ebf;" vertex="1" parent="1">
          <mxGeometry x="973.5" y="573" width="40" height="20" as="geometry" />
        </mxCell>
        <mxCell id="slHn6gZgomVeKo_xS-rV-78" style="edgeStyle=orthogonalEdgeStyle;rounded=0;orthogonalLoop=1;jettySize=auto;html=1;exitX=0.5;exitY=1;exitDx=0;exitDy=0;entryX=0.5;entryY=0;entryDx=0;entryDy=0;" edge="1" parent="1" source="slHn6gZgomVeKo_xS-rV-66" target="slHn6gZgomVeKo_xS-rV-67">
          <mxGeometry relative="1" as="geometry" />
        </mxCell>
        <mxCell id="slHn6gZgomVeKo_xS-rV-66" value="CBS" style="rounded=1;whiteSpace=wrap;html=1;fillColor=#dae8fc;strokeColor=#6c8ebf;" vertex="1" parent="1">
          <mxGeometry x="973.5" y="603" width="40" height="20" as="geometry" />
        </mxCell>
        <mxCell id="slHn6gZgomVeKo_xS-rV-79" style="edgeStyle=orthogonalEdgeStyle;rounded=0;orthogonalLoop=1;jettySize=auto;html=1;exitX=0.5;exitY=1;exitDx=0;exitDy=0;entryX=0.5;entryY=1;entryDx=0;entryDy=0;" edge="1" parent="1" source="slHn6gZgomVeKo_xS-rV-67" target="slHn6gZgomVeKo_xS-rV-72">
          <mxGeometry relative="1" as="geometry">
            <Array as="points">
              <mxPoint x="993" y="658" />
              <mxPoint x="1155" y="658" />
            </Array>
          </mxGeometry>
        </mxCell>
        <mxCell id="slHn6gZgomVeKo_xS-rV-80" style="edgeStyle=orthogonalEdgeStyle;rounded=0;orthogonalLoop=1;jettySize=auto;html=1;exitX=1;exitY=0.5;exitDx=0;exitDy=0;entryX=0;entryY=0.5;entryDx=0;entryDy=0;" edge="1" parent="1" source="slHn6gZgomVeKo_xS-rV-67" target="slHn6gZgomVeKo_xS-rV-71">
          <mxGeometry relative="1" as="geometry" />
        </mxCell>
        <mxCell id="slHn6gZgomVeKo_xS-rV-81" style="edgeStyle=orthogonalEdgeStyle;rounded=0;orthogonalLoop=1;jettySize=auto;html=1;exitX=1;exitY=0.5;exitDx=0;exitDy=0;entryX=0;entryY=0.5;entryDx=0;entryDy=0;" edge="1" parent="1" source="slHn6gZgomVeKo_xS-rV-67" target="slHn6gZgomVeKo_xS-rV-70">
          <mxGeometry relative="1" as="geometry">
            <Array as="points">
              <mxPoint x="1020" y="643" />
              <mxPoint x="1020" y="613" />
            </Array>
          </mxGeometry>
        </mxCell>
        <mxCell id="slHn6gZgomVeKo_xS-rV-82" style="edgeStyle=orthogonalEdgeStyle;rounded=0;orthogonalLoop=1;jettySize=auto;html=1;exitX=1;exitY=0.5;exitDx=0;exitDy=0;entryX=0;entryY=0.5;entryDx=0;entryDy=0;" edge="1" parent="1" source="slHn6gZgomVeKo_xS-rV-67" target="slHn6gZgomVeKo_xS-rV-69">
          <mxGeometry relative="1" as="geometry">
            <Array as="points">
              <mxPoint x="1020" y="643" />
              <mxPoint x="1020" y="583" />
            </Array>
          </mxGeometry>
        </mxCell>
        <mxCell id="slHn6gZgomVeKo_xS-rV-67" value="CBS" style="rounded=1;whiteSpace=wrap;html=1;fillColor=#dae8fc;strokeColor=#6c8ebf;" vertex="1" parent="1">
          <mxGeometry x="973.5" y="633" width="40" height="20" as="geometry" />
        </mxCell>
        <mxCell id="slHn6gZgomVeKo_xS-rV-88" style="edgeStyle=orthogonalEdgeStyle;rounded=0;orthogonalLoop=1;jettySize=auto;html=1;exitX=1;exitY=0.5;exitDx=0;exitDy=0;entryX=0.5;entryY=1;entryDx=0;entryDy=0;" edge="1" parent="1" source="slHn6gZgomVeKo_xS-rV-68" target="KWhuUIyhuwhSW9V_fMmg-9">
          <mxGeometry relative="1" as="geometry" />
        </mxCell>
        <mxCell id="slHn6gZgomVeKo_xS-rV-68" value="CBS" style="rounded=1;whiteSpace=wrap;html=1;fillColor=#dae8fc;strokeColor=#6c8ebf;" vertex="1" parent="1">
          <mxGeometry x="973.5" y="670" width="40" height="20" as="geometry" />
        </mxCell>
        <mxCell id="slHn6gZgomVeKo_xS-rV-83" style="edgeStyle=orthogonalEdgeStyle;rounded=0;orthogonalLoop=1;jettySize=auto;html=1;exitX=1;exitY=0.5;exitDx=0;exitDy=0;entryX=0.5;entryY=0;entryDx=0;entryDy=0;" edge="1" parent="1" source="slHn6gZgomVeKo_xS-rV-69" target="slHn6gZgomVeKo_xS-rV-72">
          <mxGeometry relative="1" as="geometry">
            <Array as="points">
              <mxPoint x="1155" y="583" />
            </Array>
          </mxGeometry>
        </mxCell>
        <mxCell id="slHn6gZgomVeKo_xS-rV-69" value="Maxpooling_9" style="rounded=1;whiteSpace=wrap;html=1;fillColor=#bac8d3;strokeColor=#23445d;" vertex="1" parent="1">
          <mxGeometry x="1043" y="573" width="74" height="20" as="geometry" />
        </mxCell>
        <mxCell id="slHn6gZgomVeKo_xS-rV-84" style="edgeStyle=orthogonalEdgeStyle;rounded=0;orthogonalLoop=1;jettySize=auto;html=1;exitX=1;exitY=0.5;exitDx=0;exitDy=0;entryX=0;entryY=0.5;entryDx=0;entryDy=0;" edge="1" parent="1" source="slHn6gZgomVeKo_xS-rV-70" target="slHn6gZgomVeKo_xS-rV-72">
          <mxGeometry relative="1" as="geometry" />
        </mxCell>
        <mxCell id="slHn6gZgomVeKo_xS-rV-70" value="Maxpooling_7" style="rounded=1;whiteSpace=wrap;html=1;fillColor=#bac8d3;strokeColor=#23445d;" vertex="1" parent="1">
          <mxGeometry x="1043" y="603" width="74" height="20" as="geometry" />
        </mxCell>
        <mxCell id="slHn6gZgomVeKo_xS-rV-85" style="edgeStyle=orthogonalEdgeStyle;rounded=0;orthogonalLoop=1;jettySize=auto;html=1;exitX=1;exitY=0.5;exitDx=0;exitDy=0;entryX=0.5;entryY=1;entryDx=0;entryDy=0;" edge="1" parent="1" source="slHn6gZgomVeKo_xS-rV-71" target="slHn6gZgomVeKo_xS-rV-72">
          <mxGeometry relative="1" as="geometry">
            <Array as="points">
              <mxPoint x="1155" y="643" />
            </Array>
          </mxGeometry>
        </mxCell>
        <mxCell id="slHn6gZgomVeKo_xS-rV-71" value="Maxpooling_5" style="rounded=1;whiteSpace=wrap;html=1;fillColor=#bac8d3;strokeColor=#23445d;" vertex="1" parent="1">
          <mxGeometry x="1043" y="633" width="74" height="20" as="geometry" />
        </mxCell>
        <mxCell id="slHn6gZgomVeKo_xS-rV-86" style="edgeStyle=orthogonalEdgeStyle;rounded=0;orthogonalLoop=1;jettySize=auto;html=1;exitX=1;exitY=0.5;exitDx=0;exitDy=0;entryX=0;entryY=0.5;entryDx=0;entryDy=0;" edge="1" parent="1" source="slHn6gZgomVeKo_xS-rV-72" target="slHn6gZgomVeKo_xS-rV-73">
          <mxGeometry relative="1" as="geometry" />
        </mxCell>
        <mxCell id="slHn6gZgomVeKo_xS-rV-72" value="cat" style="ellipse;whiteSpace=wrap;html=1;rounded=1;fillColor=#fff2cc;strokeColor=#d6b656;" vertex="1" parent="1">
          <mxGeometry x="1140" y="597.3600000000001" width="30" height="30" as="geometry" />
        </mxCell>
        <mxCell id="slHn6gZgomVeKo_xS-rV-87" style="edgeStyle=orthogonalEdgeStyle;rounded=0;orthogonalLoop=1;jettySize=auto;html=1;exitX=1;exitY=0.5;exitDx=0;exitDy=0;entryX=0;entryY=0.5;entryDx=0;entryDy=0;" edge="1" parent="1" source="slHn6gZgomVeKo_xS-rV-73" target="slHn6gZgomVeKo_xS-rV-74">
          <mxGeometry relative="1" as="geometry" />
        </mxCell>
        <mxCell id="slHn6gZgomVeKo_xS-rV-73" value="CBS" style="rounded=1;whiteSpace=wrap;html=1;fillColor=#dae8fc;strokeColor=#6c8ebf;" vertex="1" parent="1">
          <mxGeometry x="1195" y="602.36" width="40" height="20" as="geometry" />
        </mxCell>
        <mxCell id="slHn6gZgomVeKo_xS-rV-74" value="CBS" style="rounded=1;whiteSpace=wrap;html=1;fillColor=#dae8fc;strokeColor=#6c8ebf;" vertex="1" parent="1">
          <mxGeometry x="1257" y="602.36" width="40" height="20" as="geometry" />
        </mxCell>
        <mxCell id="slHn6gZgomVeKo_xS-rV-92" value="20*20*1024" style="text;html=1;strokeColor=none;fillColor=none;align=center;verticalAlign=middle;whiteSpace=wrap;rounded=0;strokeWidth=1;fontSize=12;" vertex="1" parent="1">
          <mxGeometry x="660" y="123" width="56" height="30" as="geometry" />
        </mxCell>
        <mxCell id="slHn6gZgomVeKo_xS-rV-93" value="40*40*512" style="text;html=1;strokeColor=none;fillColor=none;align=center;verticalAlign=middle;whiteSpace=wrap;rounded=0;strokeWidth=1;fontSize=12;" vertex="1" parent="1">
          <mxGeometry x="660" y="365" width="56" height="30" as="geometry" />
        </mxCell>
        <mxCell id="slHn6gZgomVeKo_xS-rV-94" value="80*80*256" style="text;html=1;strokeColor=none;fillColor=none;align=center;verticalAlign=middle;whiteSpace=wrap;rounded=0;strokeWidth=1;fontSize=12;" vertex="1" parent="1">
          <mxGeometry x="660" y="645" width="56" height="30" as="geometry" />
        </mxCell>
      </root>
    </mxGraphModel>
  </diagram>
</mxfile>
